<svg viewBox="0 0 63 63" xmlns="http://www.w3.org/2000/svg">
<path fill-rule="evenodd" clip-rule="evenodd" d="M32.604 8.50977C38.2774 8.50977 39.1038 8.54012 41.4946 8.64985C43.9787 8.76425 45.6761 9.15882 47.1609 9.73549C48.7193 10.3212 50.1312 11.2399 51.298 12.4274C52.4856 13.5942 53.4042 15.0061 53.99 16.5645C54.5666 18.0494 54.9612 19.7467 55.0756 22.2309C55.1877 24.722 55.2157 25.5158 55.2157 31.8569V32.0436C55.2157 38.2143 55.1877 39.0174 55.0756 41.4829C54.9612 43.967 54.5666 45.6643 53.99 47.1492C53.4042 48.7076 52.4856 50.1195 51.298 51.2863C50.1312 52.4739 48.7193 53.3925 47.1609 53.9782C45.6761 54.5549 43.9787 54.9495 41.4946 55.0639C39.0035 55.1759 38.2097 55.204 31.8686 55.204H31.6818C25.5112 55.204 24.708 55.1759 22.2426 55.0639C19.7584 54.9495 18.0611 54.5549 16.5762 53.9782C15.0178 53.3925 13.606 52.4739 12.4391 51.2863C11.2516 50.1195 10.3329 48.7076 9.74721 47.1492C9.17053 45.6643 8.77597 43.967 8.66157 41.4829C8.55184 39.0921 8.52148 38.2633 8.52148 32.5923V31.1214C8.52148 25.4481 8.55184 24.6216 8.66157 22.2309C8.77597 19.7467 9.17053 18.0494 9.74721 16.5645C10.3329 15.0061 11.2516 13.5942 12.4391 12.4274C13.606 11.2399 15.0178 10.3212 16.5762 9.73549C18.0611 9.15882 19.7584 8.76425 22.2426 8.64985C24.6333 8.54012 25.4621 8.50977 31.1332 8.50977H32.604ZM32.4149 12.7169H31.3223C25.5882 12.7169 24.8224 12.7426 22.434 12.8523C20.1577 12.9574 18.9226 13.3356 18.0985 13.6555C17.0082 14.0804 16.2307 14.5847 15.4135 15.4018C14.5964 16.219 14.0921 16.9964 13.6672 18.0867C13.3473 18.9109 12.9668 20.146 12.864 22.4223C12.7543 24.8107 12.7286 25.5765 12.7286 31.3105V32.4032C12.7286 38.1372 12.7543 38.903 12.864 41.2914C12.9691 43.5678 13.3473 44.8028 13.6672 45.627C14.0921 46.715 14.5987 47.4948 15.4135 48.3119C16.2307 49.129 17.0082 49.6333 18.0985 50.0583C18.9226 50.3781 20.1577 50.7587 22.434 50.8614C24.8948 50.9735 25.6326 50.9968 31.8686 50.9968H32.0554C38.1186 50.9968 38.8657 50.9735 41.3008 50.8614C43.5795 50.7563 44.8146 50.3781 45.6387 50.0583C46.7267 49.6333 47.5065 49.129 48.3236 48.3119C49.1408 47.4948 49.6451 46.7173 50.07 45.627C50.3898 44.8028 50.7704 43.5678 50.8731 41.2914C50.9852 38.8283 51.0085 38.0929 51.0085 31.8569V31.6701C51.0085 25.6068 50.9852 24.8597 50.8731 22.4246C50.7681 20.146 50.3898 18.9109 50.07 18.0867C49.6959 17.0725 49.0991 16.155 48.3236 15.4018C47.5704 14.6264 46.6529 14.0296 45.6387 13.6555C44.8146 13.3356 43.5795 12.9551 41.3031 12.8523C38.9147 12.7426 38.149 12.7169 32.4149 12.7169ZM31.8686 19.8681C33.443 19.8681 35.0019 20.1782 36.4565 20.7807C37.911 21.3832 39.2326 22.2663 40.3459 23.3795C41.4592 24.4928 42.3422 25.8144 42.9447 27.269C43.5472 28.7235 43.8573 30.2825 43.8573 31.8569C43.8573 33.4312 43.5472 34.9902 42.9447 36.4448C42.3422 37.8993 41.4592 39.2209 40.3459 40.3342C39.2326 41.4474 37.911 42.3305 36.4565 42.933C35.0019 43.5355 33.443 43.8456 31.8686 43.8456C28.689 43.8456 25.6396 42.5825 23.3913 40.3342C21.1429 38.0859 19.8798 35.0365 19.8798 31.8569C19.8798 28.6773 21.1429 25.6279 23.3913 23.3795C25.6396 21.1312 28.689 19.8681 31.8686 19.8681ZM31.8686 24.0753C29.8048 24.0753 27.8255 24.8951 26.3662 26.3545C24.9068 27.8138 24.087 29.7931 24.087 31.8569C24.087 33.9207 24.9068 35.8999 26.3662 37.3593C27.8255 38.8186 29.8048 39.6385 31.8686 39.6385C33.9324 39.6385 35.9117 38.8186 37.371 37.3593C38.8303 35.8999 39.6502 33.9207 39.6502 31.8569C39.6502 29.7931 38.8303 27.8138 37.371 26.3545C35.9117 24.8951 33.9324 24.0753 31.8686 24.0753ZM44.3313 16.5925C45.0743 16.5925 45.7869 16.8877 46.3123 17.4131C46.8377 17.9385 47.1329 18.6511 47.1329 19.3942C47.1329 20.1372 46.8377 20.8498 46.3123 21.3752C45.7869 21.9007 45.0743 22.1958 44.3313 22.1958C43.5882 22.1958 42.8756 21.9007 42.3502 21.3752C41.8248 20.8498 41.5296 20.1372 41.5296 19.3942C41.5296 18.6511 41.8248 17.9385 42.3502 17.4131C42.8756 16.8877 43.5882 16.5925 44.3313 16.5925Z"/>
</svg>
