<svg viewBox="0 0 396 392" fill="none" xmlns="http://www.w3.org/2000/svg">
<path d="M351.661 168.892C344.098 135.868 324.292 106.658 300.539 83.0378C277.939 60.5484 245.713 47.1303 214.618 41.8961C206.723 40.5653 198.783 39.8334 190.798 39.7891C190.399 39.7891 190.088 39.9221 189.844 40.0996C178.622 39.2346 166.357 41.2529 156.044 44.7793C135.75 49.7917 116.322 59.1068 99.9537 71.4604C74.9582 90.3124 59.056 118.435 48.8981 147.6C39.1616 175.523 37.5869 204.378 44.3071 233.299C52.0253 266.523 69.2804 295.156 96.0946 316.292C121.866 336.63 154.114 350.448 187.161 351.867C219.675 353.264 253.586 345.768 281.798 329.4C335.981 297.973 365.678 230.061 351.661 168.892ZM117.586 327.227C89.4409 310.792 66.5524 287.327 54.2653 256.92C42.8432 228.664 38.5184 196.305 45.5491 166.408C52.2249 138.13 65.2882 109.297 85.0717 87.7619C104.19 66.9581 131.026 53.2738 158.461 46.6645C164.538 45.5112 170.615 44.4244 176.803 43.8034C181.904 43.2933 187.028 43.3377 192.129 43.2046C223.734 43.6925 255.96 53.917 282.064 71.7266C294.218 80.0214 304.442 90.756 313.758 102.067C324.248 114.798 333.386 128.815 340.084 143.941C365.9 202.271 347.469 275.106 297.634 314.962C273.525 334.235 243.34 344.881 212.822 347.942C179.154 351.313 146.84 344.326 117.564 327.227H117.586Z" fill="#1A1A1A"/>
<path d="M391.182 162.682C381.845 121.074 356.938 84.3239 327.13 54.5155C298.785 26.171 258.353 9.27075 219.252 2.66146C209.272 0.975869 199.202 0.0443576 189.089 0C188.645 0 188.313 0.155252 188.047 0.37704C173.763 -0.576649 158.194 1.77431 145.064 6.21007C119.625 12.5754 95.2725 24.2858 74.735 39.811C43.3963 63.5202 23.4575 98.9397 10.7712 135.557C-1.33839 170.511 -3.26794 206.618 5.13783 242.747C14.7856 284.177 36.1882 319.93 69.5451 346.411C101.948 372.116 142.491 389.704 184.099 391.589C224.708 393.43 267.07 384.182 302.445 363.932C370.8 324.787 408.437 239.642 391.16 162.659L391.182 162.682ZM322.339 346.988C291.799 370.919 253.785 383.96 215.415 387.597C194.7 389.571 173.985 388.994 153.669 384.27C133.398 379.546 113.969 371.473 96.071 360.894C61.0506 340.245 32.6396 310.903 17.2696 272.977C2.74252 237.225 -2.73565 196.26 6.26895 158.401C14.6969 123.004 31.0205 87.0075 55.7055 59.9715C79.6808 33.7118 113.481 16.3236 148.058 7.98438C155.754 6.45404 163.428 4.99024 171.279 4.23616C178.532 3.52643 185.762 3.61515 193.015 3.4599C232.182 4.48012 272.104 17.4547 304.374 39.567C320.01 50.2794 333.163 64.2077 345.095 78.8679C358.291 95.0806 369.669 112.89 378.008 132.097C409.923 205.775 385.482 297.529 322.361 346.988H322.339Z" fill="#1A1A1A"/>
<path d="M108.335 32.9574C109.954 32.1811 108.535 29.808 106.938 30.5621C74.5344 45.8655 44.5708 75.0306 34.058 110.029C33.9471 110.361 34.4794 110.605 34.6347 110.273C42.8187 93.7717 51.8011 78.4683 64.5096 64.9171C76.9962 51.5876 91.8782 40.8087 108.357 32.9574H108.335Z" fill="#1A1A1A"/>
<path d="M112.858 29.2755C114.299 29.1203 115.63 28.7432 117.005 28.2775C118.203 27.8561 119.578 27.5677 120.243 26.3701C120.487 25.9265 120.266 25.372 119.778 25.239C118.491 24.8397 117.271 25.5938 116.118 26.1483C114.81 26.7693 113.612 27.4125 112.481 28.2996C112.104 28.588 112.414 29.342 112.88 29.2755H112.858Z" fill="#1A1A1A"/>
<path d="M364.789 275.549C356.605 292.05 347.623 307.354 334.914 320.905C322.427 334.234 307.545 345.013 291.067 352.865C289.447 353.641 290.867 356.014 292.464 355.26C324.867 339.934 354.831 310.791 365.343 275.793C365.454 275.46 364.922 275.216 364.767 275.549H364.789Z" fill="#1A1A1A"/>
<path d="M286.54 356.547C285.098 356.702 283.768 357.079 282.393 357.545C281.195 357.967 279.82 358.255 279.154 359.453C278.91 359.896 279.132 360.451 279.62 360.584C280.929 360.983 282.126 360.229 283.28 359.674C284.588 359.053 285.786 358.41 286.917 357.523C287.294 357.235 286.984 356.481 286.518 356.547H286.54Z" fill="#1A1A1A"/>
</svg>
