<svg viewBox="0 0 63 63" fill="none" xmlns="http://www.w3.org/2000/svg">
<path d="M31.1289 10.5583C42.8921 10.5583 52.428 20.0942 52.428 31.8574C52.428 43.6206 42.8921 53.1565 31.1289 53.1565C19.3657 53.1565 9.8298 43.6206 9.8298 31.8574C9.8298 20.0943 19.3657 10.5583 31.1289 10.5583Z" stroke="currentColor" stroke-width="3.27679"/>
<path d="M24.375 33.6451L27.0155 40.6289L38.7283 24.7559L24.375 33.6451Z" fill="currentColor"/>
<path d="M27.3012 35.1943L27.0469 40.6981L33.2303 35.5813L27.3012 35.1943Z" fill="currentColor"/>
<path d="M41.5892 22.0754L18.5028 30.6338C17.8517 30.8761 17.8669 31.783 18.53 31.9987L24.4833 33.9603L38.0402 25.4255L27.3025 35.1952L35.6631 41.3843C36.5322 42.0283 37.7949 41.594 38.0584 40.563L42.5763 22.9292C42.7217 22.362 42.1524 21.8657 41.5892 22.0754Z" fill="currentColor"/>
</svg>
