<svg viewBox="0 0 63 63" xmlns="http://www.w3.org/2000/svg">
<path fill-rule="evenodd" clip-rule="evenodd" d="M33.5421 35.252C33.5421 35.252 34.4181 35.3259 34.8879 34.7714L35.807 33.6761C36.2502 33.1313 37.3211 32.785 38.3695 33.3375C39.7564 34.0807 41.5494 35.2481 42.7783 36.3357C43.4554 36.8765 43.6133 37.6742 43.1517 38.5166L43.1476 38.5341C42.6717 39.3279 42.0377 40.0731 41.2355 40.7676L41.2171 40.7793C40.3144 41.4933 39.2763 41.9077 38.1664 41.5653L38.1459 41.5381C36.1517 41.0031 31.3674 38.6898 28.3188 36.3843C23.3313 32.6527 19.7862 26.497 18.8055 23.1973L18.7748 23.1778C18.4137 22.1214 18.8548 21.1369 19.6036 20.2828L19.618 20.2673C20.3504 19.5065 21.1341 18.9034 21.9732 18.454L21.9917 18.4501C22.8779 18.0124 23.7191 18.1602 24.2915 18.8042C25.0444 19.5416 26.458 21.3159 27.4509 22.9852C28.0336 23.9774 27.6684 24.995 27.096 25.4133L25.9389 26.2849C25.3563 26.7324 25.4322 27.5631 25.4322 27.5631C25.4322 27.5631 27.1432 33.7033 33.5421 35.252ZM43.6092 30.1624C43.2666 30.1624 42.9876 29.8997 42.9855 29.5748C42.9568 26.0145 41.8285 23.1778 39.6333 21.1467C37.434 19.1135 34.6541 18.0707 31.3715 18.0493C31.0268 18.0474 30.7499 17.7808 30.754 17.454C30.756 17.1291 31.033 16.8684 31.3756 16.8684H31.3797C34.9946 16.8917 38.0638 18.0474 40.5031 20.3003C42.9445 22.5611 44.2001 25.6798 44.2309 29.567C44.2329 29.892 43.958 30.1585 43.6133 30.1624H43.6092ZM40.337 28.9484H40.3226C39.9779 28.9406 39.7051 28.6701 39.7133 28.3452C39.7625 26.3257 39.1532 24.6915 37.8545 23.3471C36.562 22.0066 34.7874 21.2751 32.4281 21.1116C32.0855 21.0863 31.827 20.8042 31.8516 20.4793C31.8783 20.1544 32.1757 19.9093 32.5183 19.9326C35.1731 20.1175 37.278 20.9988 38.7736 22.5494C40.2775 24.1059 41.014 26.065 40.9586 28.3705C40.9504 28.6915 40.6734 28.9484 40.337 28.9484ZM37.1406 27.9328C36.8103 27.9328 36.5354 27.6876 36.5189 27.3705C36.4143 25.3666 35.4172 24.386 33.3862 24.281C33.0415 24.2634 32.7789 23.9852 32.7974 23.6603C32.8158 23.3335 33.1072 23.0844 33.4518 23.1019C36.1353 23.2381 37.6248 24.6954 37.7622 27.3121C37.7807 27.637 37.516 27.9153 37.1714 27.9308L37.1406 27.9328ZM51.1262 34.6819C49.885 44.1704 42.567 44.7697 41.2171 45.1802C40.6426 45.3553 35.3044 46.614 28.5957 46.1996C28.5957 46.1996 23.5939 51.9196 22.0327 53.4079C21.7885 53.6395 21.5034 53.7329 21.3105 53.6901C21.0418 53.6278 20.9679 53.3243 20.972 52.8846L21.013 45.0712C11.2434 42.4972 11.8117 32.822 11.9225 27.7577C12.0332 22.6934 13.0365 18.5435 16.0174 15.7536C21.3721 11.1543 32.4035 11.841 32.4035 11.841C41.7197 11.88 46.184 14.5395 47.22 15.4306C50.6564 18.2205 52.4064 24.8996 51.1262 34.6819ZM49.7886 13.0609C48.5638 11.9947 43.6195 8.59001 32.6066 8.54331C32.6066 8.54331 19.62 7.80011 13.2888 13.3099C9.76419 16.6524 8.52503 21.5416 8.39373 27.6059C8.26448 33.6722 8.0942 45.0343 19.6446 48.116L19.6569 48.1199L19.6487 52.8204C19.6487 52.8204 19.5769 54.7251 20.8982 55.1142C22.4963 55.5831 23.4339 54.1375 24.9624 52.5772C25.7994 51.7211 26.9544 50.4643 27.8284 49.5032C35.7291 50.1297 41.8038 48.6919 42.4952 48.4798C44.0893 47.9876 53.1163 46.8923 54.5852 35.5282C56.0993 23.8121 53.8508 16.4034 49.7886 13.0609Z"/>
</svg>
