<svg viewBox="0 0 2034 272" xmlns="http://www.w3.org/2000/svg" preserveAspectRatio="none">
<path d="M2.21939 11.5352C-2.40505 59.7723 0.981774 108.204 6.07149 156.432C8.58919 180.391 11.7365 204.348 15.7829 228.292C17.3179 237.482 20.271 247.471 47.9129 254.392C80.2219 262.473 131.78 261.576 174.075 262.223C561.978 268.232 950.606 271.447 1339.29 271.889C1558.18 272.137 1777.14 271.473 1995.94 269.963C2042.26 269.645 2045.27 253.088 2005.58 250.944C2008.32 249.402 2006.51 247.38 1998.31 247.03C1855.43 241.014 1752.3 213.881 1639.39 193.768C1579.53 183.096 1514.18 174.126 1441.13 170.526C1353.34 166.2 1264.13 168.288 1175.41 168.705C1093.03 169.098 1009.65 167.601 937.278 156.966C878.733 148.361 833.502 135.298 794.819 121.632C710.953 91.999 648.046 57.9258 531.902 34.7591C389.426 6.33772 206.556 -4.32521 27.0677 3.2919C12.1102 3.92388 2.47566 8.08428 2.17408 11.5242L2.21939 11.5352Z"/>
</svg>
