<svg viewBox="0 0 1899 283" xmlns="http://www.w3.org/2000/svg" preserveAspectRatio="none">
<path d="M868.768 146.54L870.005 147.238L871.224 147.325L868.768 146.54Z" />
<path d="M873.319 150.091C874.295 150.445 875.229 150.821 876.246 151.164C876.761 150.161 878.174 151.116 875.681 149.117C873.945 148.564 870.091 147.326 869.639 147.627C870.742 148.059 873.065 148.577 874.302 149.276C873.038 149.101 871.507 148.38 869.907 148.172C871.703 149.348 871.98 148.769 874.407 149.988L873.319 150.091Z" />
<path d="M878.549 151.037C877.918 151.005 877.288 150.973 877.039 151.04C877.669 151.073 879.569 151.503 878.549 151.037Z" />
<path d="M880.577 151.633C882.401 152.308 879.826 151.768 879.87 151.857L883.325 152.35L880.577 151.633Z" />
<path d="M888.38 154.401C888.719 154.501 889.057 154.6 889.437 154.677C889.266 154.544 888.844 154.49 888.38 154.401Z" />
<path d="M892.863 155.615C892.391 155.271 891.041 155.018 889.479 154.665C889.479 154.688 889.48 154.699 889.522 154.721C890.457 155.131 888.232 155.058 886.743 154.371C884.67 153.774 885.757 153.638 883.563 153.209L885.016 154.129C887.941 155.147 891.302 155.329 892.863 155.615Z" />
<path d="M888.378 154.402C888.039 154.291 887.658 154.181 887.277 154.059C887.576 154.248 887.998 154.336 888.378 154.402Z" />
<path d="M884.525 152.995L883.384 152.697L883.22 152.853L884.525 152.995Z" />
<path d="M900.176 157.671C898.586 157.819 895.097 156.157 893.631 156.215C896.549 157.022 898.043 157.898 896.826 157.878C898.05 158.143 899.15 158.452 900.457 158.683C902.098 158.836 901.243 158.303 900.176 157.671Z" />
<path d="M904.232 160.076C904.569 160.109 904.905 160.153 905.243 160.219C904.821 160.142 904.442 160.076 904.232 160.076Z" />
<path d="M924.476 163.486L914.702 162.081C915.837 162.135 915.832 161.968 917.94 162.331C914.141 161.526 913.011 161.64 910.137 160.889C910.122 160.388 915.542 162.102 914.641 161.425C912.446 160.962 909.32 160.223 906.757 160.072L904.085 159.087L904.102 159.666C905.205 160.075 907.721 160.059 907.817 160.482C907.824 160.716 906.347 160.418 905.251 160.231C906.432 160.451 907.745 160.872 909.312 161.358C910.116 161.601 910.921 161.867 911.893 162.121C912.907 162.363 914.046 162.595 915.27 162.826C920.416 163.783 920.729 163.015 924.434 163.497L924.476 163.486Z" />
<path d="M923.815 163.933L924.032 164.177L924.108 163.921L923.815 163.933Z" />
<path d="M934.928 165.233L929.542 164.654C929.077 164.533 928.99 164.422 928.818 164.3C928.822 164.422 927.183 164.325 927.228 164.426C928.591 165.135 933.421 165.314 936.116 165.687C942.656 166.976 935.407 165.811 937.359 166.564C935.419 166.234 935.543 166.144 932.886 165.683C936.315 166.733 942.29 167.344 945.401 167.593C944.642 167.45 944.68 167.316 943.039 167.131L946.193 167.424C943.657 166.762 941.461 166.255 934.929 165.244L934.928 165.233Z" />
<path d="M926.408 163.758C928.179 164.066 928.729 164.221 928.773 164.276C928.516 164.121 928.133 163.933 926.408 163.758Z" />
<path d="M946.96 167.792C946.665 167.726 946.159 167.66 945.402 167.583C945.739 167.65 946.161 167.715 946.96 167.792Z" />
<path d="M944.924 166.981L948.379 167.508L947.32 167.154C946.815 167.1 945.005 166.892 944.924 166.981Z" />
<path d="M1090.4 178.343C1090.1 178.176 1088.63 178.102 1085.56 178.03C1086.02 177.84 1089.97 177.976 1091.85 177.883C1087.86 177.68 1092.01 177.638 1091.04 177.418C1086.55 177.327 1084.46 177.498 1079.63 177.319C1079.88 177.263 1079.83 177.174 1079.24 177.086C1076.31 177.07 1072.4 177.045 1068.5 176.964C1064.6 176.85 1060.77 176.702 1058 176.507C1055.31 176.357 1052.96 176.273 1050.52 176.2C1048.09 176.116 1045.57 176.021 1042.59 175.916C1032.84 175.413 1023.05 174.766 1013 174.119C1008.08 173.729 1003.08 173.327 998.077 172.926C993.031 172.536 988.19 171.956 983.226 171.454L979.831 171.562C979.11 171.296 975.077 171.082 976.036 170.891C977.006 171.067 978.14 171.12 979.444 171.251C975.647 170.513 968.291 170.005 963.447 169.325C963.912 169.458 964.176 169.869 962.537 169.75C963.077 169.571 961.603 169.396 959.877 169.188C958.234 168.947 956.338 168.672 956.077 168.35C951.439 167.559 955.206 168.675 950.275 167.906C949.273 168.064 954.913 168.698 955.509 169.008C953.537 168.979 951.041 168.283 950.798 168.573C952.779 168.891 955.306 169.22 958.127 169.581C960.989 169.909 964.312 170.203 967.677 170.53C971.084 170.834 974.577 171.194 978.15 171.476C981.724 171.747 985.298 172.029 988.62 172.311L986.904 172.415C993.799 172.968 1004.98 173.78 1010.04 174.626C1008.94 174.339 1020.22 175.462 1019.65 174.862C1021.3 175.092 1021.84 175.114 1024.32 175.32L1025.16 175.196C1028.73 175.422 1027.9 175.669 1032.06 175.894C1029.53 175.532 1032.6 175.614 1033.98 175.489C1038.48 175.991 1043.86 176.492 1047.95 176.929C1047.65 176.84 1047.31 176.73 1045.96 176.566C1048.78 176.794 1048.44 176.561 1049.23 176.514C1052.01 176.631 1051.55 176.899 1051.3 177.044C1056.39 177.334 1058.98 176.861 1062.72 177.21L1061.49 176.923C1064.14 176.995 1066.53 177.146 1069.01 177.285C1071.49 177.403 1074.05 177.52 1076.99 177.569C1079.69 177.976 1072.09 177.713 1069.57 177.785C1070.75 177.883 1073.23 177.978 1073.99 178.11C1076.59 178.015 1080.86 177.906 1084.01 177.844C1080.91 178.129 1088.34 178.347 1090.36 178.387L1090.4 178.343Z" />
<path d="M1073.99 178.077C1073.23 178.1 1072.61 178.135 1072.27 178.158C1072.86 178.157 1073.4 178.156 1074.24 178.187C1074.33 178.143 1074.24 178.109 1074.03 178.076L1073.99 178.077Z" />
<path d="M1090.4 178.342C1090.4 178.342 1090.48 178.364 1090.53 178.386C1091.11 178.385 1090.9 178.364 1090.4 178.342Z" />
<path d="M1057.25 176.453C1057.46 176.463 1057.75 176.485 1058 176.507C1058.34 176.528 1058.59 176.539 1058.93 176.549L1057.25 176.453Z" />
<path d="M1052.28 177.354C1051.19 177.223 1049.72 177.093 1047.99 176.907C1048.42 177.04 1048.75 177.161 1052.28 177.354Z" />
<path d="M1017.23 175.112C1016.1 175.081 1016.65 175.191 1015.85 175.215C1018.08 175.366 1018.87 175.342 1017.23 175.112Z" />
<path d="M1080.41 178.317L1084.9 178.364L1086.54 178.349L1080.41 178.317Z" />
<path d="M1170.79 177.63C1166.84 177.382 1161.1 177.605 1156.28 177.56C1147.43 177.745 1155.2 178.185 1146.77 178.259L1148.18 177.666C1139.79 177.728 1127.88 177.619 1120.72 178.068C1120.09 177.992 1118.62 177.895 1120.8 177.823C1115.17 177.802 1117.8 178.631 1110.28 178.379C1117.36 178.075 1108.05 178.017 1110.01 177.668L1111.1 177.632C1106.36 177.653 1100.03 177.7 1096.92 177.628C1096.76 177.773 1099.41 178.057 1095.21 177.999C1096.89 178.062 1096.18 178.22 1095.98 178.365C1100.38 178.278 1102.73 178.417 1105.41 178.267C1107.81 178.507 1103.78 178.304 1106.18 178.544L1109.74 178.392C1112.3 178.464 1107.06 178.564 1111.05 178.645C1111.5 178.533 1114.82 178.437 1117.96 178.486L1117.04 178.543C1119.47 178.483 1122.83 178.609 1121.69 178.278L1124.51 178.628L1124.04 178.406C1130.59 178.515 1133.08 179.033 1141.59 178.77C1139.53 178.708 1141.41 178.581 1142.5 178.546C1138.98 178.397 1138.15 178.711 1134.79 178.74C1134.28 178.518 1139.98 178.251 1135.91 178.114C1140.36 178.372 1144.34 178.097 1146.24 178.627C1151.61 178.638 1153.66 178.356 1159.11 178.455L1158.95 178.534C1159.9 178.164 1163.4 178.68 1167.41 178.271L1164.52 178.21C1164.64 178.054 1166.02 178.04 1167.99 178.003C1167.85 178.04 1167.99 178.081 1168.42 178.124C1168.95 177.856 1175.12 177.754 1175.87 177.675C1173.27 177.647 1170.13 177.898 1167.11 177.993C1168.62 177.823 1168.15 177.602 1170.71 177.63L1170.79 177.63Z" />
<path d="M1115.32 178.658L1117.08 178.543C1116.37 178.556 1115.7 178.591 1115.32 178.658Z" />
<path d="M1195.17 177.858C1198.61 177.884 1194.3 178.093 1197.53 178.175C1200.96 177.957 1193.45 177.839 1196.84 177.531C1198.98 177.671 1202.33 177.353 1203.71 177.328C1202.21 177.498 1203.14 177.841 1203.77 177.906C1205.07 177.792 1208.05 177.931 1210.32 177.915C1204.73 177.76 1214.97 177.727 1209.93 177.548C1210.26 177.336 1215.45 177.125 1217.6 177.254C1217.48 177.41 1215.75 177.392 1214.33 177.417C1213.25 177.72 1217.86 177.532 1218.7 177.775C1223.89 177.319 1240.79 177.15 1235.91 176.57C1234.06 176.463 1232.55 176.644 1230.58 176.693C1236.08 176.759 1230.68 177.026 1230.22 177.15C1227.87 177.077 1223.89 177.319 1224.76 177.083L1228.45 176.808C1216.53 176.822 1200.27 177.068 1186.6 177.297L1192.51 177.251C1191.85 177.43 1189.04 177.47 1186.9 177.574L1189.85 177.958C1188.13 177.939 1186.49 178.02 1186.66 177.875C1184.61 178.08 1185.58 178.178 1186.84 178.298C1182.44 178.418 1181.68 178.264 1178.29 178.572C1185.68 178.857 1184.49 178.225 1192.92 178.441L1195.13 177.846L1195.17 177.858Z" />
<path d="M1179.12 178.246L1180.83 178.02L1178.15 178.148L1179.12 178.246Z" />
<path d="M1181.77 177.306C1181.86 177.395 1180.81 177.452 1180.9 177.541C1184.34 177.568 1183.91 177.446 1181.77 177.306Z" />
<path d="M1223.27 177.754L1227.67 177.633L1224.78 177.584C1224.86 177.673 1223.82 177.731 1223.27 177.754Z" />
<path d="M1254.14 176.343C1247.98 176.445 1245.39 176.673 1238.42 176.521C1235.03 176.828 1240.07 177.018 1238.65 177.288C1242.09 177.314 1241.62 176.859 1245.18 176.729C1246.53 176.949 1250.38 176.629 1253.82 176.644C1253.4 176.545 1253.39 176.434 1254.14 176.343Z" />
<path d="M1275.39 177.111C1278.2 177.105 1281 176.921 1283.23 177.028C1282.9 177.173 1281.27 177.232 1279.55 177.203C1280.65 177.534 1282.65 177.141 1285.67 177.368C1285.42 177.335 1284.33 177.271 1285.17 177.202C1292.72 177.275 1289.39 176.893 1299.22 177.128C1300.64 177.047 1302.02 177.044 1301.81 176.822C1307.35 177.122 1304.54 177.117 1311.18 177.393C1310.92 177.26 1308.78 176.952 1308.85 176.674C1318.26 177.133 1318.54 176.709 1324.51 177.064C1323.84 177.066 1323 177.134 1321.4 177.071C1322.13 177.47 1326.48 177.06 1329.8 177.164L1329.39 177.499C1332.49 177.493 1337.86 177.392 1341.68 177.707L1340.77 177.854C1348.73 177.715 1357.85 178.163 1364.56 178.227C1365.74 178.325 1366.87 178.434 1368.05 178.565C1372.67 178.633 1370.44 178.504 1367.88 178.343C1365.31 178.17 1362.46 178.02 1365.94 177.868C1366.63 178.501 1370.8 177.858 1375.89 178.315C1378.21 178.655 1370.52 178.226 1373.09 178.61C1374.42 178.34 1375.9 178.637 1378.75 178.665C1377.96 178.934 1384.55 178.942 1382.59 179.202C1385.94 179.151 1389.3 179.188 1392.65 179.17C1394.09 179.423 1396.9 179.551 1399.04 179.624C1393.79 179.335 1400.84 179.264 1395.07 178.809C1386.34 178.449 1371.98 177.855 1361.1 177.411C1359.72 177.781 1354.13 177.191 1352.25 177.474C1352.03 177.341 1351.28 177.197 1351.06 177.064C1344.01 176.945 1352.62 177.328 1350.86 177.432C1347.8 177.383 1345.36 177.11 1345.69 176.964C1340.65 176.841 1345.11 177.066 1342.47 177.238L1339.31 176.722C1323.49 176.51 1302.64 176.676 1284.72 176.468L1286.08 176.744C1277.93 176.594 1272.55 177.395 1265.27 176.854L1262.85 177.115C1264.19 176.968 1261.41 176.695 1263.5 176.49C1261.32 176.595 1258.93 176.5 1256.67 176.616L1260.74 176.719C1257.94 176.981 1254.79 176.854 1253.81 176.655C1247.78 177.002 1257.48 177.104 1258.83 177.346C1267.28 176.772 1267.44 177.796 1275.61 177.534C1280.68 177.356 1275.06 177.268 1275.35 177.122L1275.39 177.111Z" />
<path d="M1264.76 176.398C1264.26 176.421 1263.84 176.456 1263.55 176.479C1263.97 176.455 1264.39 176.432 1264.76 176.398Z" />
<path d="M1399.08 179.6C1399.71 179.632 1400.43 179.675 1401.44 179.718C1402.28 179.694 1400.97 179.674 1399.08 179.6Z" />
<path d="M1249.82 177.375L1252.08 177.359L1251.7 177.226L1249.82 177.375Z" />
<path d="M1421.84 181.535L1422 181.402C1421.75 181.424 1421.63 181.469 1421.84 181.535Z" />
<path d="M1481.35 188.033L1480.13 187.857C1480.46 187.934 1480.93 187.989 1481.35 188.033Z" />
<path d="M1610.38 210.816C1613.92 211.443 1618.56 212.302 1621.55 212.629L1620.96 212.697C1622.9 213.016 1629.22 214.038 1626.13 213.054L1624.91 212.967C1620.19 212.254 1622.41 212.127 1619.37 211.365C1615.24 210.584 1611.67 210.546 1608.46 209.707C1606.85 209.399 1607.48 209.331 1608.2 209.341C1604.77 208.569 1602.38 208.618 1599.81 208.156C1601.42 207.073 1588.22 206.155 1584.52 204.526C1580.98 203.91 1576.67 202.951 1571.87 202.271C1574.77 202.499 1567.86 201.456 1569.49 201.385C1566.86 201.669 1557.63 198.75 1555.04 199.267C1549.59 197.977 1554.71 199.268 1548.2 197.835C1548.41 197.768 1549.55 197.977 1550.06 198.042C1547.69 197.402 1545.09 197.563 1543.64 196.831C1538.2 195.785 1542.22 196.834 1538.43 196.442C1532.82 195.34 1534.67 195.537 1532.17 194.674C1530.83 194.899 1527.75 194.149 1524.43 193.844C1525.1 193.976 1528.98 194.714 1526.04 194.397C1519.29 193.198 1520.06 193.686 1513.36 192.732C1510.9 191.836 1519.85 193.754 1514.82 192.551C1519.33 193.042 1522.36 193.593 1525.18 193.687C1519.78 192.741 1512.91 191.709 1506.47 190.921C1503.22 190.338 1508.57 191.017 1506 190.566C1500.26 189.465 1495.78 189.563 1491.26 188.671L1492.69 188.624C1489.2 188.442 1481.82 187.055 1475.72 186.433C1476.27 186.632 1476.65 186.754 1475.72 186.722C1476.72 186.231 1467.1 185.961 1461.91 184.915C1461.84 185.293 1455.83 184.839 1452.17 184.479C1451.03 184.248 1451.53 184.146 1451.65 184.057C1457.25 184.902 1457.95 184.333 1462.91 184.712C1458.71 184.443 1452.52 183.543 1448.74 183.418L1450.45 183.303C1444.98 182.702 1444.79 183.415 1439.36 182.591L1440.19 182.456C1434.43 181.867 1428.04 181.302 1421.94 180.735C1415.8 180.247 1409.79 179.87 1404.79 179.747C1403.83 179.85 1408.26 180.575 1408.39 180.719C1414.18 180.985 1417.83 180.9 1422.28 181.113L1421.87 181.415C1423.09 181.29 1428.38 181.601 1425.73 181.195C1429.42 181.332 1428.05 181.691 1432.29 181.86C1431.54 182.151 1429.1 181.978 1428.78 182.246L1432.47 182.383C1431.22 182.408 1434.41 182.668 1433.2 182.704C1440.08 182.924 1441.87 183.71 1448.63 184.186L1445.06 183.77C1445.35 183.603 1447.41 183.821 1449.05 183.929C1450.44 184.371 1451.54 184.447 1454.7 184.93C1457.76 185.113 1459.86 184.975 1463.73 185.423C1462.39 185.648 1469.76 186.379 1469.98 186.734C1471.35 186.509 1477.55 187.531 1478.35 187.44C1480.45 187.648 1483.15 188.054 1482.82 188.221C1482.52 188.189 1481.85 188.145 1481.22 188.069L1483.2 188.354C1482.95 188.355 1482.95 188.399 1482.69 188.377C1484.46 188.63 1484.92 188.395 1486.9 188.869C1486.74 188.948 1485.48 188.783 1484.38 188.674C1489.02 189.355 1493.55 189.368 1496.84 190.218C1497.93 190.182 1503.33 190.961 1502.89 190.472C1504.08 190.804 1502.95 190.984 1506.95 191.543C1509.76 191.627 1511.04 192.325 1514.36 192.608C1509.82 192.272 1514.16 192.686 1510.12 192.416C1512.49 192.934 1517.23 193.191 1521.58 194.006C1521.88 194.15 1521.67 194.228 1522.01 194.361C1523.9 194.547 1526.38 194.653 1527.44 195.14L1527.69 194.917C1530.48 195.534 1534.82 196.227 1537.57 197L1542.23 197.324C1546.26 198.618 1553.87 199.515 1558.63 199.961C1560.4 200.325 1562.98 200.909 1562.73 200.977C1562.22 200.922 1561.38 200.835 1560.41 200.725C1563.03 201.254 1565.78 202.061 1568.05 202.078C1570.99 202.529 1569.49 202.665 1571.35 203.107C1578 203.772 1586.6 206.625 1589.98 206.351C1587.79 205.899 1583.9 204.928 1579.56 204.091C1580.9 204.244 1580.35 203.945 1581.95 204.253C1586.3 205.09 1587.83 205.755 1592.38 206.513L1590.75 206.795C1596.85 208.674 1606.13 209.122 1610.13 210.85L1610.38 210.816Z" />
<path d="M1555.86 199.842L1558.49 200.649L1558.6 200.415C1557.55 200.261 1556.58 200.074 1555.86 199.842Z" />
<path d="M1558.6 200.415C1559.28 200.525 1559.99 200.613 1560.67 200.689C1559.99 200.557 1559.32 200.436 1558.64 200.359L1558.65 200.415L1558.6 200.415Z" />
<path d="M1622.75 213.293C1623.38 213.447 1624.61 213.757 1626.04 213.987C1625.32 213.755 1623.59 213.369 1622.75 213.293Z" />
<path d="M1626.58 213.93L1625.27 213.543L1624.89 213.544L1626.58 213.93Z" />
<path d="M1716.52 232.327L1722.08 233.128C1722.59 233.428 1728.53 234.451 1726.14 234.277C1729.88 234.615 1735.38 236.217 1734.22 235.318C1719.5 232.444 1700.45 228.043 1682.82 224.907L1685.94 225.313C1676.37 223.819 1675.16 222.486 1666.36 221.647L1668.25 221.521C1664.57 220.605 1659.32 220.393 1656.22 219.186L1656.23 219.398C1655.13 219.166 1654.88 219.022 1653.78 218.78L1654.04 218.935C1650.79 218.463 1649.06 218.066 1646.48 217.381C1646.6 217.236 1647.96 217.623 1648.93 217.777C1647.95 217.4 1645.05 217.15 1642.85 216.676C1641.37 216.223 1643.31 216.531 1643.69 216.541C1636.64 215.287 1634.64 214.312 1628.5 213.801C1627.79 213.803 1629.74 214.322 1627.21 213.86C1631.14 214.931 1635.27 215.49 1639.61 216.205L1638.51 215.973C1643.09 216.175 1640.58 216.581 1646.27 217.46C1644.38 217.363 1642.15 216.901 1640.97 216.814C1645.76 218.407 1650.16 218.308 1652.71 219.583L1652.25 219.506C1652.97 219.738 1654.78 219.979 1656.25 220.21C1656 220.055 1654.77 219.757 1654.01 219.525C1655.49 219.767 1656.78 219.708 1657.5 219.707C1658.39 220.228 1659.81 220.025 1661.89 220.632C1662.15 220.999 1659.36 220.382 1658.19 220.295L1661.47 220.767C1664.13 221.307 1663.47 221.52 1664.44 221.896C1667.09 222.224 1663.47 221.52 1665.86 221.693C1667.98 222.523 1680.26 225.002 1686.59 226.035C1684.52 225.649 1685.29 226.093 1682.97 225.553C1683.69 225.774 1687.1 226.334 1687.56 226.188C1691.94 226.903 1696.71 228.05 1700.01 228.967L1699.37 228.59C1703.25 229.005 1706.73 230.434 1712.67 231.456L1712.59 231.423C1714.44 231.764 1717.04 231.725 1720.09 232.487C1718.66 232.468 1716.97 232.093 1716.6 232.305L1716.52 232.327Z" />
<path d="M1736.97 236.081L1734.58 235.908C1736.44 236.372 1739.68 236.632 1739.63 236.41C1738.15 236.168 1736.67 235.715 1736.08 235.783C1736.21 235.86 1735.96 235.928 1736.93 236.082L1736.97 236.081Z" />
<path d="M1774.03 243.828C1774.92 243.938 1774.91 243.827 1775.42 243.825C1767.53 242.206 1757.61 240.245 1754.98 239.438C1752.53 238.82 1751.11 239.023 1747.61 238.396L1746.72 237.875C1744.53 237.624 1739.75 236.254 1740.65 236.997C1740.78 237.064 1742.67 237.171 1744.02 237.547L1743.44 237.615L1747.11 238.32L1745.55 238.223C1749.74 239.449 1750.26 238.502 1755.75 239.882L1754.84 240.162C1758.72 241.011 1761.04 241.329 1764 242.247C1764 242.247 1764.46 242.101 1763.62 242.025C1763.03 241.87 1762.51 241.571 1763.23 241.58C1769.89 242.613 1761.76 241.561 1765.61 242.555C1771.29 243.422 1781.5 245.304 1783.62 246.135C1781.76 245.448 1785.89 246.019 1788.67 246.636C1789.65 247.012 1787.25 246.617 1786.53 246.607C1787.76 246.916 1788.65 247.215 1790.08 247.457C1788.85 246.936 1790.61 246.955 1794.03 247.504C1787.77 245.892 1780.79 245.306 1774.12 243.828L1774.03 243.828Z" />
<path d="M1776.77 244.013C1776.05 243.881 1775.63 243.838 1775.38 243.827C1776.3 244.014 1777.23 244.213 1778.12 244.389L1776.77 244.002L1776.77 244.013Z" />
<path d="M247.945 6.77826C247.688 6.61184 246.384 6.481 243.529 6.40906C243.985 6.21889 247.681 6.37812 249.443 6.36331C245.784 6.04818 249.646 6.12914 248.841 5.88596C244.641 5.69439 242.591 5.89903 238.138 5.6746C238.389 5.62956 238.386 5.52938 237.838 5.44149C232.34 5.36394 223.065 5.20524 217.852 4.82658C212.77 4.6146 208.911 4.61153 203.246 4.54546C198.628 4.39929 193.926 4.26443 189.224 4.14069C184.48 4.02818 179.697 3.99366 174.871 3.9147C165.177 3.77914 155.356 3.59933 145.328 3.50899L142.445 3.90456C141.474 3.69512 137.704 3.88109 138.284 3.62388C139.376 3.67725 140.424 3.64165 141.724 3.63894C137.476 3.26938 130.356 3.61819 125.234 3.47307C125.823 3.53862 126.672 3.89301 125.122 3.96304C125.528 3.50585 119.041 4.00914 117.516 3.51146C112.396 3.42199 117.36 3.90135 111.99 3.86805C111.453 4.1363 117.11 3.95753 118.081 4.15584C116.41 4.38194 113.255 4.09913 113.515 4.37685C117.796 4.43468 123.871 4.21052 130.581 4.12971C137.247 4.01561 144.542 3.87791 151.084 3.83085L149.665 4.07868C156.371 3.87545 167.242 4.10873 172.5 4.57634C171.317 4.32282 182.324 4.85633 181.468 4.3016C183.151 4.45391 183.654 4.44172 186.047 4.52576L186.756 4.36845C190.156 4.45039 189.534 4.7077 193.48 4.79962C190.996 4.50429 193.849 4.50945 195.061 4.35109C199.477 4.73142 204.605 5.09913 208.516 5.41373C208.22 5.33644 207.881 5.23698 206.577 5.10614C209.266 5.25634 208.881 5.02342 209.635 4.96619C212.237 5.02753 211.868 5.31769 211.663 5.46281C216.409 5.67549 218.827 5.16957 222.319 5.50731L221.178 5.22032C226.132 5.35466 230.129 5.76926 235.628 5.89133C238.073 6.30917 231.017 6.00113 228.669 6.05055C229.721 6.15966 232.073 6.26605 232.749 6.3982C235.179 6.32634 239.162 6.2401 242.181 6.2004C239.211 6.47374 246.139 6.71525 247.988 6.81156L247.945 6.77826Z" />
<path d="M232.748 6.36381C232.077 6.38747 231.491 6.41096 231.114 6.434C231.659 6.43286 232.163 6.43181 232.919 6.47475C233.002 6.44118 232.917 6.39685 232.706 6.3639L232.748 6.36381Z" />
<path d="M247.946 6.77796C247.946 6.77796 248.031 6.81102 248.031 6.82209C248.575 6.82095 248.408 6.81022 247.946 6.77796Z" />
<path d="M217.14 4.75862C217.35 4.76931 217.602 4.7799 217.854 4.80164C218.148 4.81215 218.443 4.83381 218.736 4.84432C218.19 4.81208 217.686 4.77974 217.14 4.75862Z" />
<path d="M212.556 5.73963C211.546 5.63044 210.116 5.49987 208.518 5.36964C208.941 5.49119 209.279 5.57952 212.556 5.73963Z" />
<path d="M179.338 4.66062C178.29 4.68507 178.88 4.77289 178.127 4.83012C180.225 4.87025 180.978 4.80188 179.338 4.66062Z" />
<path d="M238.667 6.65121L242.822 6.73155L244.416 6.72822L238.667 6.65121Z" />
<path d="M322.378 10.095C319.09 9.55645 313.672 9.34516 309.341 8.97578C301.066 8.61465 307.763 9.51334 299.989 9.07325L301.82 8.57968C294.089 8.15063 283.2 7.3275 276.241 7.47561C275.693 7.37658 274.388 7.22348 276.486 7.24135C271.278 7.00738 273.151 7.92727 266.381 7.39603C273.092 7.35975 264.522 6.95471 266.528 6.68339L267.576 6.6812C263.125 6.51242 257.207 6.41349 254.308 6.24146C254.102 6.38659 256.462 6.73783 252.598 6.56783C254.153 6.67588 253.402 6.811 253.155 6.95621C257.267 6.99214 259.37 7.19921 261.969 7.127C264.075 7.43424 260.416 7.11913 262.523 7.41524L265.878 7.40823C268.19 7.55922 263.279 7.4693 266.935 7.6954C267.436 7.60531 270.499 7.6323 273.398 7.7932L272.518 7.81729C274.784 7.84594 277.854 8.10666 277.004 7.73001C277.805 7.87303 278.565 8.02726 279.367 8.19254L279.108 7.94821C285.036 8.40329 286.859 9.05618 294.835 9.26211C293.026 9.08781 294.83 9.0729 295.879 9.09296C292.764 8.7433 291.766 9.01252 288.657 8.85207C288.398 8.60774 293.811 8.66321 290.193 8.31461C294.067 8.8185 297.924 8.75478 299.202 9.39766C304.078 9.74364 306.212 9.54997 311.009 10.0519L310.801 10.1192C312.051 9.82716 314.674 10.5785 318.698 10.4811L316.173 10.2081C316.462 10.0739 317.723 10.1603 319.488 10.268C319.321 10.298 319.407 10.3497 319.745 10.4232C320.535 10.2101 326.167 10.5768 326.964 10.5528C324.65 10.3351 321.546 10.3416 318.731 10.2028C320.282 10.155 320.065 9.91057 322.336 10.1173L322.378 10.095Z" />
<path d="M270.842 7.86328L272.518 7.81525C271.847 7.80552 271.218 7.81797 270.842 7.86328Z" />
<path d="M343.918 12.2311C346.906 12.5477 342.832 12.3781 345.569 12.7397C348.886 12.8329 342.404 12.0785 345.759 12.0715C347.446 12.3796 350.844 12.3836 352.105 12.4811C350.555 12.5178 350.944 12.9176 351.409 13.028C352.709 13.0253 355.154 13.432 357.173 13.6058C352.456 12.9701 361.5 13.8305 357.287 13.2272C357.869 13.059 362.743 13.3159 364.43 13.6241C364.099 13.7583 362.625 13.5944 361.322 13.497C359.943 13.678 364.313 13.9137 364.699 14.2134C369.902 14.2471 384.754 15.7631 381.368 14.7462C379.934 14.4709 378.34 14.4854 376.574 14.3444C381.29 14.9356 376.165 14.668 375.621 14.736C373.683 14.4395 369.861 14.2805 370.989 14.1446L374.558 14.2373C369.38 13.636 363.072 13.0815 356.512 12.5387C349.952 11.9959 343.181 11.4313 336.96 10.9879C338.768 11.1177 340.534 11.281 342.301 11.4331C341.465 11.5573 338.984 11.3288 336.926 11.2663C337.645 11.4651 338.364 11.664 339.084 11.8739C337.611 11.7101 336.015 11.6689 336.347 11.5346C334.251 11.5724 335.011 11.7378 335.982 11.9583C331.906 11.7331 331.397 11.5338 328.043 11.5742C334.317 12.407 334.002 11.662 341.203 12.6041L343.918 12.2311Z" />
<path d="M329.121 11.3149L330.964 11.222L328.403 11.1495L329.121 11.3149Z" />
<path d="M332.666 10.6068C332.669 10.6958 331.619 10.6646 331.622 10.7648C334.693 11.0477 334.437 10.9036 332.666 10.6068Z" />
<path d="M368.735 14.5952L372.729 14.9096L370.286 14.5808C370.247 14.67 369.239 14.6164 368.734 14.5841L368.735 14.5952Z" />
<path d="M397.647 16.2577C392.137 15.7572 389.535 15.7181 383.68 14.9067C380.281 14.8693 384.412 15.5285 382.779 15.6321C385.767 15.982 385.963 15.5141 389.284 15.7409C390.133 16.0731 393.994 16.1429 396.899 16.493C396.685 16.3599 396.808 16.2595 397.646 16.2466L397.647 16.2577Z" />
<path d="M414.721 19.1503C417.162 19.4235 419.892 19.5291 421.663 19.8482C421.163 19.9494 419.65 19.8524 418.217 19.6439C418.649 20.0548 420.993 19.8941 423.273 20.3902C423.104 20.3349 422.218 20.1698 423.099 20.1902C429.417 21.0452 427.132 20.3821 435.222 21.5895C436.566 21.6535 437.745 21.8069 437.906 21.5839C442.21 22.432 439.811 22.1365 445.082 23.0715C445.077 22.9268 443.72 22.4177 444.216 22.1718C451.639 23.5364 452.592 23.1337 457.11 24.1149C456.521 24.0493 455.723 24.0176 454.416 23.7977C454.429 24.2429 458.752 24.3229 461.45 24.7847L460.577 25.0426C463.229 25.3487 468.108 25.7837 470.896 26.4457L469.849 26.4924C473.341 26.8413 477.045 27.2898 480.458 27.7836C483.87 28.2884 487.115 28.7936 489.979 29.155L492.556 29.7951C500.597 30.7467 485.262 28.5304 491.734 28.951C491.418 29.6083 496.026 29.3761 499.869 30.2585C501.437 30.7783 495.28 29.6893 496.976 30.2868C498.524 30.1611 499.459 30.5598 501.9 30.833C500.814 31.0133 506.621 31.6134 504.525 31.6734L513.486 32.534C514.419 32.8882 516.737 33.2618 518.507 33.5141C514.248 32.7884 520.599 33.3427 516.083 32.4061C508.96 31.2857 496.786 29.5637 488.184 28.0568C486.428 28.2608 482.453 27.1673 480.442 27.2382C480.437 27.0936 480.012 26.8941 480.008 26.7494C473.945 26.0052 480.984 27.1369 479.262 27.0737C476.61 26.7676 474.959 26.2591 475.46 26.1579C471.289 25.5544 474.789 26.1927 472.228 26.0867L470.275 25.3006C466.906 24.8735 463.285 24.4136 459.496 23.9429C455.706 23.4611 451.748 22.9574 447.666 22.4985C439.5 21.5583 431.289 20.5181 423.749 19.4765L424.516 19.8644C417.651 18.9327 411.784 19.1342 406.42 17.8766L403.944 17.8595C405.286 17.8567 403.341 17.3265 405.439 17.3555C403.38 17.2262 401.483 16.9074 399.381 16.7671L402.711 17.2833C399.899 17.2335 397.411 16.7935 396.857 16.5053C394 16.3777 394.593 16.5657 396.069 16.8297C397.504 17.1161 399.738 17.4787 400.163 17.6559C408.311 17.995 406.871 18.9553 414.271 19.5408C418.895 19.8762 414.179 19.2516 414.679 19.1393L414.721 19.1503Z" />
<path d="M406.657 17.4175C406.194 17.385 405.775 17.3748 405.481 17.3643C405.901 17.3857 406.279 17.4071 406.657 17.4175Z" />
<path d="M518.551 33.5143C519.057 33.6023 519.647 33.7012 520.49 33.8219C521.288 33.8759 520.151 33.7336 518.551 33.5143Z" />
<path d="M392.336 16.7924L394.355 16.9997L394.183 16.8442L392.336 16.7924Z" />
<path d="M536.567 37.1054L536.897 36.9829C536.647 36.9834 536.48 37.017 536.567 37.1054Z" />
<path d="M585.056 46.9002L584.042 46.6686C584.296 46.7571 584.676 46.8343 585.056 46.9002Z" />
<path d="M688.933 74.1384C691.724 74.9006 695.153 75.9731 697.726 76.4352L697.098 76.4699C698.62 76.8674 703.566 78.1704 701.604 77.0726L700.551 76.9301C696.79 76.003 699.014 76.0095 696.89 75.1124C693.757 74.1506 690.436 73.9238 688.06 72.9938C686.832 72.6291 687.419 72.5945 688.133 72.6375C685.506 71.7526 683.197 71.6906 681.167 71.1384C683.572 70.1873 671.991 68.6755 669.76 66.9883C666.802 66.2711 663.497 65.1649 659.446 64.3275C662.056 64.6671 656.271 63.3769 657.908 63.3847C656.526 63.4655 654.28 62.7022 651.993 61.9723C649.706 61.2425 647.212 60.5799 645.833 60.7831C641.595 59.3339 645.497 60.7727 640.415 59.1472C640.665 59.091 641.595 59.3339 642.018 59.4221C640.235 58.7135 637.677 58.7634 636.816 58.0194C632.501 56.7819 635.473 57.9777 632.227 57.428C627.783 56.1239 629.469 56.3764 627.68 55.4786C626.217 55.6597 623.801 54.8188 620.936 54.3796C621.486 54.5343 624.574 55.396 622.044 54.9784C616.549 53.5652 616.858 54.0654 611.327 52.8637C609.746 51.8987 616.608 54.1327 612.834 52.7493C616.67 53.4091 619.164 54.0494 621.771 54.2554C617.334 53.1406 611.675 51.8613 606.358 50.8039C603.778 50.0969 608.251 50.9892 606.221 50.4369C601.653 49.1553 597.37 49.0307 593.816 47.9919L595.201 48.0112C592.003 47.6951 586.499 45.9592 581.354 45.0573C581.696 45.268 581.91 45.4123 581.111 45.336C582.524 44.9101 573.694 44.1829 569.838 42.8998C569.388 43.2569 564.33 42.4661 561.293 41.8937C560.488 41.606 561.031 41.5269 561.28 41.4596C565.593 42.6082 566.795 42.1048 571.009 42.7527C567.428 42.2482 562.61 41.0228 559.285 40.6624L561.005 40.6588C556.74 39.7217 555.67 40.4029 551.568 39.2984L552.489 39.2186C542.873 37.4689 532.564 35.0084 523.603 34.1034C522.555 34.1278 525.689 35.1341 525.651 35.2789C530.662 35.9362 533.9 36.1855 537.691 36.7229L536.943 36.9805C538.201 36.9445 542.667 37.6252 540.721 37.0505C543.921 37.4445 542.25 37.6817 545.913 38.1415C544.913 38.3662 542.889 38.0366 542.267 38.2493L545.466 38.6433C544.29 38.579 546.905 39.0522 545.77 38.9989C551.873 39.6651 552.777 40.4646 558.468 41.3876C557.539 41.1781 556.651 40.9462 555.68 40.7479C556.137 40.5911 557.784 40.955 559.132 41.1747C559.986 41.6738 560.914 41.8277 563.324 42.4682C565.977 42.83 568.032 42.8257 571.156 43.4758C569.65 43.6125 575.932 44.6902 575.817 45.0466C577.322 44.8987 582.185 46.1908 583.022 46.1446C584.835 46.4524 586.948 46.9823 586.491 47.1168C586.238 47.0728 585.648 46.9961 585.142 46.8858L586.705 47.261C586.453 47.2615 586.454 47.2949 586.244 47.262C587.68 47.5929 588.303 47.3912 589.746 47.9447C589.496 48.012 588.483 47.7915 587.597 47.6264C591.273 48.5314 595.641 48.7227 598.019 49.6749C599.068 49.695 603.544 50.6762 603.529 50.1754C604.379 50.552 603.249 50.6434 606.501 51.3712C609.107 51.5773 609.674 52.3107 612.582 52.7387C608.581 52.2128 612.332 52.806 608.795 52.3682C610.575 52.9877 614.826 53.4352 618.377 54.3738C618.549 54.5182 618.299 54.5855 618.513 54.7297C620.157 54.9823 622.428 55.1779 623.073 55.6997L623.486 55.4984C625.73 56.1838 629.32 57.0111 631.233 57.8864L635.401 58.3897C638.253 59.7861 644.789 60.9411 649.086 61.5332C650.565 61.9308 652.432 62.617 652.182 62.6843C651.76 62.6073 651.001 62.4864 650.2 62.3434C652.274 62.9624 654.146 63.86 656.331 63.9667C658.78 64.5181 657.23 64.5881 658.671 65.086C664.445 66.0089 670.533 69.0236 673.803 68.95C672.151 68.408 669.266 67.3122 665.714 66.3624C666.895 66.5603 666.592 66.2604 667.903 66.6138C671.455 67.5636 672.315 68.2741 675.951 69.2237L674.195 69.4166C678.367 71.4781 686.74 72.3399 689.101 74.1492L688.933 74.1384Z" />
<path d="M646.094 61.3637L648.007 62.2168L648.294 62.0047C647.408 61.8173 646.604 61.6075 646.094 61.3637Z" />
<path d="M648.296 62.0026C648.887 62.1238 649.478 62.245 650.026 62.3441C649.518 62.1782 648.969 62.0458 648.379 61.9468L648.296 62.0026Z" />
<path d="M698.122 77.1243C698.546 77.3015 699.396 77.6559 700.537 77.954C700.068 77.699 698.838 77.2452 698.122 77.1243Z" />
<path d="M701.16 77.9311L700.266 77.4988L699.93 77.4773L701.16 77.9311Z" />
<path d="M761.51 101.367L765.238 102.606C765.247 102.918 768.982 104.39 767.084 104.016C769.913 104.666 772.362 106.62 772.713 105.718C764.205 101.729 753.298 96.0641 741.05 91.8379L743.459 92.4451C736.517 90.3448 737.066 89.0303 730.018 87.6092L731.906 87.6275C729.733 86.4857 724.852 85.9727 723.386 84.6402L723.14 84.841C722.377 84.5532 722.33 84.3975 721.525 84.1098L721.613 84.2654C719.077 83.6141 717.93 83.1379 716.27 82.3288C716.518 82.2059 717.37 82.6382 718.089 82.8481C717.574 82.4263 715.17 82.0083 713.643 81.4327C712.788 80.9114 714.227 81.3314 714.563 81.3529C709.481 79.7163 708.278 78.7393 703.051 77.9043C702.379 77.8612 703.697 78.4595 701.75 77.8848C704.388 79.1147 707.807 79.8422 711.148 80.7702L710.385 80.4823C714.384 80.9526 711.664 81.192 715.978 82.3628C714.294 82.1549 712.766 81.5793 711.755 81.4256C714.451 83.223 718.652 83.4146 719.572 84.7594L719.234 84.66C719.661 84.9151 721.097 85.2571 722.197 85.5776C722.109 85.422 721.343 85.0562 720.874 84.7901C721.974 85.1106 723.275 85.1413 723.906 85.1956C724.132 85.7405 725.681 85.6482 726.96 86.3468C726.803 86.7033 724.893 85.9504 723.84 85.7968L726.376 86.4481C728.284 87.1231 727.365 87.2697 727.798 87.7029C729.826 88.1995 727.366 87.2809 729.347 87.6218C730.256 88.5437 738.446 91.7321 742.977 93.1584C741.578 92.6493 741.675 93.1055 740.229 92.4407C740.614 92.707 743.07 93.4587 743.654 93.3685C746.788 94.3525 749.39 95.8274 751.143 96.9256L751.131 96.5361C754.046 97.2312 755.184 98.8205 759.128 100.259L759.127 100.226C760.315 100.691 762.712 100.886 764.251 101.862C762.988 101.709 762.05 101.21 761.426 101.367L761.51 101.367Z" />
<path d="M773.962 106.642L772.063 106.256C773.003 106.844 775.494 107.384 775.824 107.194C774.89 106.84 774.287 106.296 773.658 106.297C773.66 106.375 773.326 106.409 773.962 106.653L773.962 106.642Z" />
<path d="M793.276 117.319C793.827 117.507 794.075 117.407 794.455 117.473C790.82 115.154 785.161 112.439 784.292 111.439C783.178 110.64 781.585 110.677 779.544 109.757L779.654 109.211C778.214 108.758 776.192 107.07 775.795 107.817C775.797 107.884 777.358 108.17 777.875 108.647L777.246 108.649L779.247 109.635L778.023 109.393C779.62 110.903 781.694 110.12 784.18 111.907L782.884 112.054C784.89 113.207 786.332 113.727 787.371 114.827C787.371 114.827 788.04 114.759 787.406 114.593C787.148 114.394 787.223 114.093 787.813 114.17C791.93 115.775 786.549 113.994 788.223 115.259C791.578 116.644 796.862 119.426 797.184 120.372C796.825 119.582 799.37 120.534 800.654 121.389C800.792 121.822 799.432 121.202 798.842 121.114C799.315 121.525 799.535 121.869 800.343 122.246C800.242 121.668 801.759 121.887 803.672 122.751C801.261 120.653 796.314 119.339 793.234 117.308L793.276 117.319Z" />
<path d="M795.342 117.792C794.958 117.592 794.705 117.515 794.494 117.482C794.921 117.748 795.391 118.025 795.818 118.28L795.342 117.792Z" />
<path d="M868.768 146.54L870.005 147.238L871.224 147.325L868.768 146.54Z" />
<path d="M873.319 150.091C874.295 150.445 875.229 150.821 876.246 151.164C876.761 150.161 878.174 151.116 875.681 149.117C873.945 148.564 870.091 147.326 869.639 147.627C870.742 148.059 873.065 148.577 874.302 149.276C873.038 149.101 871.507 148.38 869.907 148.172C871.703 149.348 871.98 148.769 874.407 149.988L873.319 150.091Z" />
<path d="M878.549 151.037C877.918 151.005 877.288 150.973 877.039 151.04C877.669 151.073 879.569 151.503 878.549 151.037Z" />
<path d="M880.577 151.633C882.401 152.308 879.826 151.768 879.87 151.857L883.325 152.35L880.577 151.633Z" />
<path d="M888.38 154.401C888.719 154.501 889.057 154.6 889.437 154.677C889.266 154.544 888.844 154.49 888.38 154.401Z" />
<path d="M892.863 155.615C892.391 155.271 891.041 155.018 889.479 154.665C889.479 154.688 889.48 154.699 889.522 154.721C890.457 155.131 888.232 155.058 886.743 154.371C884.67 153.774 885.757 153.638 883.563 153.209L885.016 154.129C887.941 155.147 891.302 155.329 892.863 155.615Z" />
<path d="M888.378 154.402C888.039 154.291 887.658 154.181 887.277 154.059C887.576 154.248 887.998 154.336 888.378 154.402Z" />
<path d="M884.525 152.995L883.384 152.697L883.22 152.853L884.525 152.995Z" />
<path d="M900.176 157.671C898.586 157.819 895.097 156.157 893.631 156.215C896.549 157.022 898.043 157.898 896.826 157.878C898.05 158.143 899.15 158.452 900.457 158.683C902.098 158.836 901.243 158.303 900.176 157.671Z" />
<path d="M904.232 160.076C904.569 160.109 904.905 160.153 905.243 160.219C904.821 160.142 904.442 160.076 904.232 160.076Z" />
<path d="M924.476 163.486L914.702 162.081C915.837 162.135 915.832 161.968 917.94 162.331C914.141 161.526 913.011 161.64 910.137 160.889C910.122 160.388 915.542 162.102 914.641 161.425C912.446 160.962 909.32 160.223 906.757 160.072L904.085 159.087L904.102 159.666C905.205 160.075 907.721 160.059 907.817 160.482C907.824 160.716 906.347 160.418 905.251 160.231C906.432 160.451 907.745 160.872 909.312 161.358C910.116 161.601 910.921 161.867 911.893 162.121C912.907 162.363 914.046 162.595 915.27 162.826C920.416 163.783 920.729 163.015 924.434 163.497L924.476 163.486Z" />
<path d="M923.815 163.933L924.032 164.177L924.108 163.921L923.815 163.933Z" />
<path d="M934.928 165.233L929.542 164.654C929.077 164.533 928.99 164.422 928.818 164.3C928.822 164.422 927.183 164.325 927.228 164.426C928.591 165.135 933.421 165.314 936.116 165.687C942.656 166.976 935.407 165.811 937.359 166.564C935.419 166.234 935.543 166.144 932.886 165.683C936.315 166.733 942.29 167.344 945.401 167.593C944.642 167.45 944.68 167.316 943.039 167.131L946.193 167.424C943.657 166.762 941.461 166.255 934.929 165.244L934.928 165.233Z" />
<path d="M926.408 163.758C928.179 164.066 928.729 164.221 928.773 164.276C928.516 164.121 928.133 163.933 926.408 163.758Z" />
<path d="M946.96 167.792C946.665 167.726 946.159 167.66 945.402 167.583C945.739 167.65 946.161 167.715 946.96 167.792Z" />
<path d="M944.924 166.981L948.379 167.508L947.32 167.154C946.815 167.1 945.005 166.892 944.924 166.981Z" />
<path d="M1090.4 178.343C1090.1 178.176 1088.63 178.102 1085.56 178.03C1086.02 177.84 1089.97 177.976 1091.85 177.883C1087.86 177.68 1092.01 177.638 1091.04 177.418C1086.55 177.327 1084.46 177.498 1079.63 177.319C1079.88 177.263 1079.83 177.174 1079.24 177.086C1076.31 177.07 1072.4 177.045 1068.5 176.964C1064.6 176.85 1060.77 176.702 1058 176.507C1055.31 176.357 1052.96 176.273 1050.52 176.2C1048.09 176.116 1045.57 176.021 1042.59 175.916C1032.84 175.413 1023.05 174.766 1013 174.119C1008.08 173.729 1003.08 173.327 998.077 172.926C993.031 172.536 988.19 171.956 983.226 171.454L979.831 171.562C979.11 171.296 975.077 171.082 976.036 170.891C977.006 171.067 978.14 171.12 979.444 171.251C975.647 170.513 968.291 170.005 963.447 169.325C963.912 169.458 964.176 169.869 962.537 169.75C963.077 169.571 961.603 169.396 959.877 169.188C958.234 168.947 956.338 168.672 956.077 168.35C951.439 167.559 955.206 168.675 950.275 167.906C949.273 168.064 954.913 168.698 955.509 169.008C953.537 168.979 951.041 168.283 950.798 168.573C952.779 168.891 955.306 169.22 958.127 169.581C960.989 169.909 964.312 170.203 967.677 170.53C971.084 170.834 974.577 171.194 978.15 171.476C981.724 171.747 985.298 172.029 988.62 172.311L986.904 172.415C993.799 172.968 1004.98 173.78 1010.04 174.626C1008.94 174.339 1020.22 175.462 1019.65 174.862C1021.3 175.092 1021.84 175.114 1024.32 175.32L1025.16 175.196C1028.73 175.422 1027.9 175.669 1032.06 175.894C1029.53 175.532 1032.6 175.614 1033.98 175.489C1038.48 175.991 1043.86 176.492 1047.95 176.929C1047.65 176.84 1047.31 176.73 1045.96 176.566C1048.78 176.794 1048.44 176.561 1049.23 176.514C1052.01 176.631 1051.55 176.899 1051.3 177.044C1056.39 177.334 1058.98 176.861 1062.72 177.21L1061.49 176.923C1064.14 176.995 1066.53 177.146 1069.01 177.285C1071.49 177.403 1074.05 177.52 1076.99 177.569C1079.69 177.976 1072.09 177.713 1069.57 177.785C1070.75 177.883 1073.23 177.978 1073.99 178.11C1076.59 178.015 1080.86 177.906 1084.01 177.844C1080.91 178.129 1088.34 178.347 1090.36 178.387L1090.4 178.343Z" />
<path d="M1073.99 178.077C1073.23 178.1 1072.61 178.135 1072.27 178.158C1072.86 178.157 1073.4 178.156 1074.24 178.187C1074.33 178.143 1074.24 178.109 1074.03 178.076L1073.99 178.077Z" />
<path d="M1090.4 178.342C1090.4 178.342 1090.48 178.364 1090.53 178.386C1091.11 178.385 1090.9 178.364 1090.4 178.342Z" />
<path d="M1057.25 176.453C1057.46 176.463 1057.75 176.485 1058 176.507C1058.34 176.528 1058.59 176.539 1058.93 176.549L1057.25 176.453Z" />
<path d="M1052.28 177.354C1051.19 177.223 1049.72 177.093 1047.99 176.907C1048.42 177.04 1048.75 177.161 1052.28 177.354Z" />
<path d="M1017.23 175.112C1016.1 175.081 1016.65 175.191 1015.85 175.215C1018.08 175.366 1018.87 175.342 1017.23 175.112Z" />
<path d="M1080.41 178.317L1084.9 178.364L1086.54 178.349L1080.41 178.317Z" />
<path d="M1170.79 177.63C1166.84 177.382 1161.1 177.605 1156.28 177.56C1147.43 177.745 1155.2 178.185 1146.77 178.259L1148.18 177.666C1139.79 177.728 1127.88 177.619 1120.72 178.068C1120.09 177.992 1118.62 177.895 1120.8 177.823C1115.17 177.802 1117.8 178.631 1110.28 178.379C1117.36 178.075 1108.05 178.017 1110.01 177.668L1111.1 177.632C1106.36 177.653 1100.03 177.7 1096.92 177.628C1096.76 177.773 1099.41 178.057 1095.21 177.999C1096.89 178.062 1096.18 178.22 1095.98 178.365C1100.38 178.278 1102.73 178.417 1105.41 178.267C1107.81 178.507 1103.78 178.304 1106.18 178.544L1109.74 178.392C1112.3 178.464 1107.06 178.564 1111.05 178.645C1111.5 178.533 1114.82 178.437 1117.96 178.486L1117.04 178.543C1119.47 178.483 1122.83 178.609 1121.69 178.278L1124.51 178.628L1124.04 178.406C1130.59 178.515 1133.08 179.033 1141.59 178.77C1139.53 178.708 1141.41 178.581 1142.5 178.546C1138.98 178.397 1138.15 178.711 1134.79 178.74C1134.28 178.518 1139.98 178.251 1135.91 178.114C1140.36 178.372 1144.34 178.097 1146.24 178.627C1151.61 178.638 1153.66 178.356 1159.11 178.455L1158.95 178.534C1159.9 178.164 1163.4 178.68 1167.41 178.271L1164.52 178.21C1164.64 178.054 1166.02 178.04 1167.99 178.003C1167.85 178.04 1167.99 178.081 1168.42 178.124C1168.95 177.856 1175.12 177.754 1175.87 177.675C1173.27 177.647 1170.13 177.898 1167.11 177.993C1168.62 177.823 1168.15 177.602 1170.71 177.63L1170.79 177.63Z" />
<path d="M1115.32 178.658L1117.08 178.543C1116.37 178.556 1115.7 178.591 1115.32 178.658Z" />
<path d="M1195.17 177.858C1198.61 177.884 1194.3 178.093 1197.53 178.175C1200.96 177.957 1193.45 177.839 1196.84 177.531C1198.98 177.671 1202.33 177.353 1203.71 177.328C1202.21 177.498 1203.14 177.841 1203.77 177.906C1205.07 177.792 1208.05 177.931 1210.32 177.915C1204.73 177.76 1214.97 177.727 1209.93 177.548C1210.26 177.336 1215.45 177.125 1217.6 177.254C1217.48 177.41 1215.75 177.392 1214.33 177.417C1213.25 177.72 1217.86 177.532 1218.7 177.775C1223.89 177.319 1240.79 177.15 1235.91 176.57C1234.06 176.463 1232.55 176.644 1230.58 176.693C1236.08 176.759 1230.68 177.026 1230.22 177.15C1227.87 177.077 1223.89 177.319 1224.76 177.083L1228.45 176.808C1216.53 176.822 1200.27 177.068 1186.6 177.297L1192.51 177.251C1191.85 177.43 1189.04 177.47 1186.9 177.574L1189.85 177.958C1188.13 177.939 1186.49 178.02 1186.66 177.875C1184.61 178.08 1185.58 178.178 1186.84 178.298C1182.44 178.418 1181.68 178.264 1178.29 178.572C1185.68 178.857 1184.49 178.225 1192.92 178.441L1195.13 177.846L1195.17 177.858Z" />
<path d="M1179.12 178.246L1180.83 178.02L1178.15 178.148L1179.12 178.246Z" />
<path d="M1181.77 177.306C1181.86 177.395 1180.81 177.452 1180.9 177.541C1184.34 177.568 1183.91 177.446 1181.77 177.306Z" />
<path d="M1223.27 177.754L1227.67 177.633L1224.78 177.584C1224.86 177.673 1223.82 177.731 1223.27 177.754Z" />
<path d="M1254.14 176.343C1247.98 176.445 1245.39 176.673 1238.42 176.521C1235.03 176.828 1240.07 177.018 1238.65 177.288C1242.09 177.314 1241.62 176.859 1245.18 176.729C1246.53 176.949 1250.38 176.629 1253.82 176.644C1253.4 176.545 1253.39 176.434 1254.14 176.343Z" />
<path d="M1275.39 177.111C1278.2 177.105 1281 176.921 1283.23 177.028C1282.9 177.173 1281.27 177.232 1279.55 177.203C1280.65 177.534 1282.65 177.141 1285.67 177.368C1285.42 177.335 1284.33 177.271 1285.17 177.202C1292.72 177.275 1289.39 176.893 1299.22 177.128C1300.64 177.047 1302.02 177.044 1301.81 176.822C1307.35 177.122 1304.54 177.117 1311.18 177.393C1310.92 177.26 1308.78 176.952 1308.85 176.674C1318.26 177.133 1318.54 176.709 1324.51 177.064C1323.84 177.066 1323 177.134 1321.4 177.071C1322.13 177.47 1326.48 177.06 1329.8 177.164L1329.39 177.499C1332.49 177.493 1337.86 177.392 1341.68 177.707L1340.77 177.854C1348.73 177.715 1357.85 178.163 1364.56 178.227C1365.74 178.325 1366.87 178.434 1368.05 178.565C1372.67 178.633 1370.44 178.504 1367.88 178.343C1365.31 178.17 1362.46 178.02 1365.94 177.868C1366.63 178.501 1370.8 177.858 1375.89 178.315C1378.21 178.655 1370.52 178.226 1373.09 178.61C1374.42 178.34 1375.9 178.637 1378.75 178.665C1377.96 178.934 1384.55 178.942 1382.59 179.202C1385.94 179.151 1389.3 179.188 1392.65 179.17C1394.09 179.423 1396.9 179.551 1399.04 179.624C1393.79 179.335 1400.84 179.264 1395.07 178.809C1386.34 178.449 1371.98 177.855 1361.1 177.411C1359.72 177.781 1354.13 177.191 1352.25 177.474C1352.03 177.341 1351.28 177.197 1351.06 177.064C1344.01 176.945 1352.62 177.328 1350.86 177.432C1347.8 177.383 1345.36 177.11 1345.69 176.964C1340.65 176.841 1345.11 177.066 1342.47 177.238L1339.31 176.722C1323.49 176.51 1302.64 176.676 1284.72 176.468L1286.08 176.744C1277.93 176.594 1272.55 177.395 1265.27 176.854L1262.85 177.115C1264.19 176.968 1261.41 176.695 1263.5 176.49C1261.32 176.595 1258.93 176.5 1256.67 176.616L1260.74 176.719C1257.94 176.981 1254.79 176.854 1253.81 176.655C1247.78 177.002 1257.48 177.104 1258.83 177.346C1267.28 176.772 1267.44 177.796 1275.61 177.534C1280.68 177.356 1275.06 177.268 1275.35 177.122L1275.39 177.111Z" />
<path d="M1264.76 176.398C1264.26 176.421 1263.84 176.456 1263.55 176.479C1263.97 176.455 1264.39 176.432 1264.76 176.398Z" />
<path d="M1399.08 179.6C1399.71 179.632 1400.43 179.675 1401.44 179.718C1402.28 179.694 1400.97 179.674 1399.08 179.6Z" />
<path d="M1249.82 177.375L1252.08 177.359L1251.7 177.226L1249.82 177.375Z" />
<path d="M1421.84 181.535L1422 181.402C1421.75 181.424 1421.63 181.469 1421.84 181.535Z" />
<path d="M1481.35 188.033L1480.13 187.857C1480.46 187.934 1480.93 187.989 1481.35 188.033Z" />
<path d="M1610.38 210.816C1613.92 211.443 1618.56 212.302 1621.55 212.629L1620.96 212.697C1622.9 213.016 1629.22 214.038 1626.13 213.054L1624.91 212.967C1620.19 212.254 1622.41 212.127 1619.37 211.365C1615.24 210.584 1611.67 210.546 1608.46 209.707C1606.85 209.399 1607.48 209.331 1608.2 209.341C1604.77 208.569 1602.38 208.618 1599.81 208.156C1601.42 207.073 1588.22 206.155 1584.52 204.526C1580.98 203.91 1576.67 202.951 1571.87 202.271C1574.77 202.499 1567.86 201.456 1569.49 201.385C1566.86 201.669 1557.63 198.75 1555.04 199.267C1549.59 197.977 1554.71 199.268 1548.2 197.835C1548.41 197.768 1549.55 197.977 1550.06 198.042C1547.69 197.402 1545.09 197.563 1543.64 196.831C1538.2 195.785 1542.22 196.834 1538.43 196.442C1532.82 195.34 1534.67 195.537 1532.17 194.674C1530.83 194.899 1527.75 194.149 1524.43 193.844C1525.1 193.976 1528.98 194.714 1526.04 194.397C1519.29 193.198 1520.06 193.686 1513.36 192.732C1510.9 191.836 1519.85 193.754 1514.82 192.551C1519.33 193.042 1522.36 193.593 1525.18 193.687C1519.78 192.741 1512.91 191.709 1506.47 190.921C1503.22 190.338 1508.57 191.017 1506 190.566C1500.26 189.465 1495.78 189.563 1491.26 188.671L1492.69 188.624C1489.2 188.442 1481.82 187.055 1475.72 186.433C1476.27 186.632 1476.65 186.754 1475.72 186.722C1476.72 186.231 1467.1 185.961 1461.91 184.915C1461.84 185.293 1455.83 184.839 1452.17 184.479C1451.03 184.248 1451.53 184.146 1451.65 184.057C1457.25 184.902 1457.95 184.333 1462.91 184.712C1458.71 184.443 1452.52 183.543 1448.74 183.418L1450.45 183.303C1444.98 182.702 1444.79 183.415 1439.36 182.591L1440.19 182.456C1434.43 181.867 1428.04 181.302 1421.94 180.735C1415.8 180.247 1409.79 179.87 1404.79 179.747C1403.83 179.85 1408.26 180.575 1408.39 180.719C1414.18 180.985 1417.83 180.9 1422.28 181.113L1421.87 181.415C1423.09 181.29 1428.38 181.601 1425.73 181.195C1429.42 181.332 1428.05 181.691 1432.29 181.86C1431.54 182.151 1429.1 181.978 1428.78 182.246L1432.47 182.383C1431.22 182.408 1434.41 182.668 1433.2 182.704C1440.08 182.924 1441.87 183.71 1448.63 184.186L1445.06 183.77C1445.35 183.603 1447.41 183.821 1449.05 183.929C1450.44 184.371 1451.54 184.447 1454.7 184.93C1457.76 185.113 1459.86 184.975 1463.73 185.423C1462.39 185.648 1469.76 186.379 1469.98 186.734C1471.35 186.509 1477.55 187.531 1478.35 187.44C1480.45 187.648 1483.15 188.054 1482.82 188.221C1482.52 188.189 1481.85 188.145 1481.22 188.069L1483.2 188.354C1482.95 188.355 1482.95 188.399 1482.69 188.377C1484.46 188.63 1484.92 188.395 1486.9 188.869C1486.74 188.948 1485.48 188.783 1484.38 188.674C1489.02 189.355 1493.55 189.368 1496.84 190.218C1497.93 190.182 1503.33 190.961 1502.89 190.472C1504.08 190.804 1502.95 190.984 1506.95 191.543C1509.76 191.627 1511.04 192.325 1514.36 192.608C1509.82 192.272 1514.16 192.686 1510.12 192.416C1512.49 192.934 1517.23 193.191 1521.58 194.006C1521.88 194.15 1521.67 194.228 1522.01 194.361C1523.9 194.547 1526.38 194.653 1527.44 195.14L1527.69 194.917C1530.48 195.534 1534.82 196.227 1537.57 197L1542.23 197.324C1546.26 198.618 1553.87 199.515 1558.63 199.961C1560.4 200.325 1562.98 200.909 1562.73 200.977C1562.22 200.922 1561.38 200.835 1560.41 200.725C1563.03 201.254 1565.78 202.061 1568.05 202.078C1570.99 202.529 1569.49 202.665 1571.35 203.107C1578 203.772 1586.6 206.625 1589.98 206.351C1587.79 205.899 1583.9 204.928 1579.56 204.091C1580.9 204.244 1580.35 203.945 1581.95 204.253C1586.3 205.09 1587.83 205.755 1592.38 206.513L1590.75 206.795C1596.85 208.674 1606.13 209.122 1610.13 210.85L1610.38 210.816Z" />
<path d="M1555.86 199.842L1558.49 200.649L1558.6 200.415C1557.55 200.261 1556.58 200.074 1555.86 199.842Z" />
<path d="M1558.6 200.415C1559.28 200.525 1559.99 200.613 1560.67 200.689C1559.99 200.557 1559.32 200.436 1558.64 200.359L1558.65 200.415L1558.6 200.415Z" />
<path d="M1622.75 213.293C1623.38 213.447 1624.61 213.757 1626.04 213.987C1625.32 213.755 1623.59 213.369 1622.75 213.293Z" />
<path d="M1626.58 213.93L1625.27 213.543L1624.89 213.544L1626.58 213.93Z" />
<path d="M1716.52 232.327L1722.08 233.128C1722.59 233.428 1728.53 234.451 1726.14 234.277C1729.88 234.615 1735.38 236.217 1734.22 235.318C1719.5 232.444 1700.45 228.043 1682.82 224.907L1685.94 225.313C1676.37 223.819 1675.16 222.486 1666.36 221.647L1668.25 221.521C1664.57 220.605 1659.32 220.393 1656.22 219.186L1656.23 219.398C1655.13 219.166 1654.88 219.022 1653.78 218.78L1654.04 218.935C1650.79 218.463 1649.06 218.066 1646.48 217.381C1646.6 217.236 1647.96 217.623 1648.93 217.777C1647.95 217.4 1645.05 217.15 1642.85 216.676C1641.37 216.223 1643.31 216.531 1643.69 216.541C1636.64 215.287 1634.64 214.312 1628.5 213.801C1627.79 213.803 1629.74 214.322 1627.21 213.86C1631.14 214.931 1635.27 215.49 1639.61 216.205L1638.51 215.973C1643.09 216.175 1640.58 216.581 1646.27 217.46C1644.38 217.363 1642.15 216.901 1640.97 216.814C1645.76 218.407 1650.16 218.308 1652.71 219.583L1652.25 219.506C1652.97 219.738 1654.78 219.979 1656.25 220.21C1656 220.055 1654.77 219.757 1654.01 219.525C1655.49 219.767 1656.78 219.708 1657.5 219.707C1658.39 220.228 1659.81 220.025 1661.89 220.632C1662.15 220.999 1659.36 220.382 1658.19 220.295L1661.47 220.767C1664.13 221.307 1663.47 221.52 1664.44 221.896C1667.09 222.224 1663.47 221.52 1665.86 221.693C1667.98 222.523 1680.26 225.002 1686.59 226.035C1684.52 225.649 1685.29 226.093 1682.97 225.553C1683.69 225.774 1687.1 226.334 1687.56 226.188C1691.94 226.903 1696.71 228.05 1700.01 228.967L1699.37 228.59C1703.25 229.005 1706.73 230.434 1712.67 231.456L1712.59 231.423C1714.44 231.764 1717.04 231.725 1720.09 232.487C1718.66 232.468 1716.97 232.093 1716.6 232.305L1716.52 232.327Z" />
<path d="M1736.97 236.081L1734.58 235.908C1736.44 236.372 1739.68 236.632 1739.63 236.41C1738.15 236.168 1736.67 235.715 1736.08 235.783C1736.21 235.86 1735.96 235.928 1736.93 236.082L1736.97 236.081Z" />
<path d="M1774.03 243.828C1774.92 243.938 1774.91 243.827 1775.42 243.825C1767.53 242.206 1757.61 240.245 1754.98 239.438C1752.53 238.82 1751.11 239.023 1747.61 238.396L1746.72 237.875C1744.53 237.624 1739.75 236.254 1740.65 236.997C1740.78 237.064 1742.67 237.171 1744.02 237.547L1743.44 237.615L1747.11 238.32L1745.55 238.223C1749.74 239.449 1750.26 238.502 1755.75 239.882L1754.84 240.162C1758.72 241.011 1761.04 241.329 1764 242.247C1764 242.247 1764.46 242.101 1763.62 242.025C1763.03 241.87 1762.51 241.571 1763.23 241.58C1769.89 242.613 1761.76 241.561 1765.61 242.555C1771.29 243.422 1781.5 245.304 1783.62 246.135C1781.76 245.448 1785.89 246.019 1788.67 246.636C1789.65 247.012 1787.25 246.617 1786.53 246.607C1787.76 246.916 1788.65 247.215 1790.08 247.457C1788.85 246.936 1790.61 246.955 1794.03 247.504C1787.77 245.892 1780.79 245.306 1774.12 243.828L1774.03 243.828Z" />
<path d="M1776.77 244.013C1776.05 243.881 1775.63 243.838 1775.38 243.827C1776.3 244.014 1777.23 244.213 1778.12 244.389L1776.77 244.002L1776.77 244.013Z" />
<path d="M247.945 6.77826C247.688 6.61184 246.384 6.481 243.529 6.40906C243.985 6.21889 247.681 6.37812 249.443 6.36331C245.784 6.04818 249.646 6.12914 248.841 5.88596C244.641 5.69439 242.591 5.89903 238.138 5.6746C238.389 5.62956 238.386 5.52938 237.838 5.44149C232.34 5.36394 223.065 5.20524 217.852 4.82658C212.77 4.6146 208.911 4.61153 203.246 4.54546C198.628 4.39929 193.926 4.26443 189.224 4.14069C184.48 4.02818 179.697 3.99366 174.871 3.9147C165.177 3.77914 155.356 3.59933 145.328 3.50899L142.445 3.90456C141.474 3.69512 137.704 3.88109 138.284 3.62388C139.376 3.67725 140.424 3.64165 141.724 3.63894C137.476 3.26938 130.356 3.61819 125.234 3.47307C125.823 3.53862 126.672 3.89301 125.122 3.96304C125.528 3.50585 119.041 4.00914 117.516 3.51146C112.396 3.42199 117.36 3.90135 111.99 3.86805C111.453 4.1363 117.11 3.95753 118.081 4.15584C116.41 4.38194 113.255 4.09913 113.515 4.37685C117.796 4.43468 123.871 4.21052 130.581 4.12971C137.247 4.01561 144.542 3.87791 151.084 3.83085L149.665 4.07868C156.371 3.87545 167.242 4.10873 172.5 4.57634C171.317 4.32282 182.324 4.85633 181.468 4.3016C183.151 4.45391 183.654 4.44172 186.047 4.52576L186.756 4.36845C190.156 4.45039 189.534 4.7077 193.48 4.79962C190.996 4.50429 193.849 4.50945 195.061 4.35109C199.477 4.73142 204.605 5.09913 208.516 5.41373C208.22 5.33644 207.881 5.23698 206.577 5.10614C209.266 5.25634 208.881 5.02342 209.635 4.96619C212.237 5.02753 211.868 5.31769 211.663 5.46281C216.409 5.67549 218.827 5.16957 222.319 5.50731L221.178 5.22032C226.132 5.35466 230.129 5.76926 235.628 5.89133C238.073 6.30917 231.017 6.00113 228.669 6.05055C229.721 6.15966 232.073 6.26605 232.749 6.3982C235.179 6.32634 239.162 6.2401 242.181 6.2004C239.211 6.47374 246.139 6.71525 247.988 6.81156L247.945 6.77826Z" />
<path d="M232.748 6.36381C232.077 6.38747 231.491 6.41096 231.114 6.434C231.659 6.43286 232.163 6.43181 232.919 6.47475C233.002 6.44118 232.917 6.39685 232.706 6.3639L232.748 6.36381Z" />
<path d="M247.946 6.77796C247.946 6.77796 248.031 6.81102 248.031 6.82209C248.575 6.82095 248.408 6.81022 247.946 6.77796Z" />
<path d="M217.14 4.75862C217.35 4.76931 217.602 4.7799 217.854 4.80164C218.148 4.81215 218.443 4.83381 218.736 4.84432C218.19 4.81208 217.686 4.77974 217.14 4.75862Z" />
<path d="M212.556 5.73963C211.546 5.63044 210.116 5.49987 208.518 5.36964C208.941 5.49119 209.279 5.57952 212.556 5.73963Z" />
<path d="M179.338 4.66062C178.29 4.68507 178.88 4.77289 178.127 4.83012C180.225 4.87025 180.978 4.80188 179.338 4.66062Z" />
<path d="M238.667 6.65121L242.822 6.73155L244.416 6.72822L238.667 6.65121Z" />
<path d="M322.378 10.095C319.09 9.55645 313.672 9.34516 309.341 8.97578C301.066 8.61465 307.763 9.51334 299.989 9.07325L301.82 8.57968C294.089 8.15063 283.2 7.3275 276.241 7.47561C275.693 7.37658 274.388 7.22348 276.486 7.24135C271.278 7.00738 273.151 7.92727 266.381 7.39603C273.092 7.35975 264.522 6.95471 266.528 6.68339L267.576 6.6812C263.125 6.51242 257.207 6.41349 254.308 6.24146C254.102 6.38659 256.462 6.73783 252.598 6.56783C254.153 6.67588 253.402 6.811 253.155 6.95621C257.267 6.99214 259.37 7.19921 261.969 7.127C264.075 7.43424 260.416 7.11913 262.523 7.41524L265.878 7.40823C268.19 7.55922 263.279 7.4693 266.935 7.6954C267.436 7.60531 270.499 7.6323 273.398 7.7932L272.518 7.81729C274.784 7.84594 277.854 8.10666 277.004 7.73001C277.805 7.87303 278.565 8.02726 279.367 8.19254L279.108 7.94821C285.036 8.40329 286.859 9.05618 294.835 9.26211C293.026 9.08781 294.83 9.0729 295.879 9.09296C292.764 8.7433 291.766 9.01252 288.657 8.85207C288.398 8.60774 293.811 8.66321 290.193 8.31461C294.067 8.8185 297.924 8.75478 299.202 9.39766C304.078 9.74364 306.212 9.54997 311.009 10.0519L310.801 10.1192C312.051 9.82716 314.674 10.5785 318.698 10.4811L316.173 10.2081C316.462 10.0739 317.723 10.1603 319.488 10.268C319.321 10.298 319.407 10.3497 319.745 10.4232C320.535 10.2101 326.167 10.5768 326.964 10.5528C324.65 10.3351 321.546 10.3416 318.731 10.2028C320.282 10.155 320.065 9.91057 322.336 10.1173L322.378 10.095Z" />
<path d="M270.842 7.86328L272.518 7.81525C271.847 7.80552 271.218 7.81797 270.842 7.86328Z" />
<path d="M343.918 12.2311C346.906 12.5477 342.832 12.3781 345.569 12.7397C348.886 12.8329 342.404 12.0785 345.759 12.0715C347.446 12.3796 350.844 12.3836 352.105 12.4811C350.555 12.5178 350.944 12.9176 351.409 13.028C352.709 13.0253 355.154 13.432 357.173 13.6058C352.456 12.9701 361.5 13.8305 357.287 13.2272C357.869 13.059 362.743 13.3159 364.43 13.6241C364.099 13.7583 362.625 13.5944 361.322 13.497C359.943 13.678 364.313 13.9137 364.699 14.2134C369.902 14.2471 384.754 15.7631 381.368 14.7462C379.934 14.4709 378.34 14.4854 376.574 14.3444C381.29 14.9356 376.165 14.668 375.621 14.736C373.683 14.4395 369.861 14.2805 370.989 14.1446L374.558 14.2373C369.38 13.636 363.072 13.0815 356.512 12.5387C349.952 11.9959 343.181 11.4313 336.96 10.9879C338.768 11.1177 340.534 11.281 342.301 11.4331C341.465 11.5573 338.984 11.3288 336.926 11.2663C337.645 11.4651 338.364 11.664 339.084 11.8739C337.611 11.7101 336.015 11.6689 336.347 11.5346C334.251 11.5724 335.011 11.7378 335.982 11.9583C331.906 11.7331 331.397 11.5338 328.043 11.5742C334.317 12.407 334.002 11.662 341.203 12.6041L343.918 12.2311Z" />
<path d="M329.121 11.3149L330.964 11.222L328.403 11.1495L329.121 11.3149Z" />
<path d="M332.666 10.6068C332.669 10.6958 331.619 10.6646 331.622 10.7648C334.693 11.0477 334.437 10.9036 332.666 10.6068Z" />
<path d="M368.735 14.5952L372.729 14.9096L370.286 14.5808C370.247 14.67 369.239 14.6164 368.734 14.5841L368.735 14.5952Z" />
<path d="M397.647 16.2577C392.137 15.7572 389.535 15.7181 383.68 14.9067C380.281 14.8693 384.412 15.5285 382.779 15.6321C385.767 15.982 385.963 15.5141 389.284 15.7409C390.133 16.0731 393.994 16.1429 396.899 16.493C396.685 16.3599 396.808 16.2595 397.646 16.2466L397.647 16.2577Z" />
<path d="M414.721 19.1503C417.162 19.4235 419.892 19.5291 421.663 19.8482C421.163 19.9494 419.65 19.8524 418.217 19.6439C418.649 20.0548 420.993 19.8941 423.273 20.3902C423.104 20.3349 422.218 20.1698 423.099 20.1902C429.417 21.0452 427.132 20.3821 435.222 21.5895C436.566 21.6535 437.745 21.8069 437.906 21.5839C442.21 22.432 439.811 22.1365 445.082 23.0715C445.077 22.9268 443.72 22.4177 444.216 22.1718C451.639 23.5364 452.592 23.1337 457.11 24.1149C456.521 24.0493 455.723 24.0176 454.416 23.7977C454.429 24.2429 458.752 24.3229 461.45 24.7847L460.577 25.0426C463.229 25.3487 468.108 25.7837 470.896 26.4457L469.849 26.4924C473.341 26.8413 477.045 27.2898 480.458 27.7836C483.87 28.2884 487.115 28.7936 489.979 29.155L492.556 29.7951C500.597 30.7467 485.262 28.5304 491.734 28.951C491.418 29.6083 496.026 29.3761 499.869 30.2585C501.437 30.7783 495.28 29.6893 496.976 30.2868C498.524 30.1611 499.459 30.5598 501.9 30.833C500.814 31.0133 506.621 31.6134 504.525 31.6734L513.486 32.534C514.419 32.8882 516.737 33.2618 518.507 33.5141C514.248 32.7884 520.599 33.3427 516.083 32.4061C508.96 31.2857 496.786 29.5637 488.184 28.0568C486.428 28.2608 482.453 27.1673 480.442 27.2382C480.437 27.0936 480.012 26.8941 480.008 26.7494C473.945 26.0052 480.984 27.1369 479.262 27.0737C476.61 26.7676 474.959 26.2591 475.46 26.1579C471.289 25.5544 474.789 26.1927 472.228 26.0867L470.275 25.3006C466.906 24.8735 463.285 24.4136 459.496 23.9429C455.706 23.4611 451.748 22.9574 447.666 22.4985C439.5 21.5583 431.289 20.5181 423.749 19.4765L424.516 19.8644C417.651 18.9327 411.784 19.1342 406.42 17.8766L403.944 17.8595C405.286 17.8567 403.341 17.3265 405.439 17.3555C403.38 17.2262 401.483 16.9074 399.381 16.7671L402.711 17.2833C399.899 17.2335 397.411 16.7935 396.857 16.5053C394 16.3777 394.593 16.5657 396.069 16.8297C397.504 17.1161 399.738 17.4787 400.163 17.6559C408.311 17.995 406.871 18.9553 414.271 19.5408C418.895 19.8762 414.179 19.2516 414.679 19.1393L414.721 19.1503Z" />
<path d="M406.657 17.4175C406.194 17.385 405.775 17.3748 405.481 17.3643C405.901 17.3857 406.279 17.4071 406.657 17.4175Z" />
<path d="M518.551 33.5143C519.057 33.6023 519.647 33.7012 520.49 33.8219C521.288 33.8759 520.151 33.7336 518.551 33.5143Z" />
<path d="M392.336 16.7924L394.355 16.9997L394.183 16.8442L392.336 16.7924Z" />
<path d="M536.567 37.1054L536.897 36.9829C536.647 36.9834 536.48 37.017 536.567 37.1054Z" />
<path d="M585.056 46.9002L584.042 46.6686C584.296 46.7571 584.676 46.8343 585.056 46.9002Z" />
<path d="M688.933 74.1384C691.724 74.9006 695.153 75.9731 697.726 76.4352L697.098 76.4699C698.62 76.8674 703.566 78.1704 701.604 77.0726L700.551 76.9301C696.79 76.003 699.014 76.0095 696.89 75.1124C693.757 74.1506 690.436 73.9238 688.06 72.9938C686.832 72.6291 687.419 72.5945 688.133 72.6375C685.506 71.7526 683.197 71.6906 681.167 71.1384C683.572 70.1873 671.991 68.6755 669.76 66.9883C666.802 66.2711 663.497 65.1649 659.446 64.3275C662.056 64.6671 656.271 63.3769 657.908 63.3847C656.526 63.4655 654.28 62.7022 651.993 61.9723C649.706 61.2425 647.212 60.5799 645.833 60.7831C641.595 59.3339 645.497 60.7727 640.415 59.1472C640.665 59.091 641.595 59.3339 642.018 59.4221C640.235 58.7135 637.677 58.7634 636.816 58.0194C632.501 56.7819 635.473 57.9777 632.227 57.428C627.783 56.1239 629.469 56.3764 627.68 55.4786C626.217 55.6597 623.801 54.8188 620.936 54.3796C621.486 54.5343 624.574 55.396 622.044 54.9784C616.549 53.5652 616.858 54.0654 611.327 52.8637C609.746 51.8987 616.608 54.1327 612.834 52.7493C616.67 53.4091 619.164 54.0494 621.771 54.2554C617.334 53.1406 611.675 51.8613 606.358 50.8039C603.778 50.0969 608.251 50.9892 606.221 50.4369C601.653 49.1553 597.37 49.0307 593.816 47.9919L595.201 48.0112C592.003 47.6951 586.499 45.9592 581.354 45.0573C581.696 45.268 581.91 45.4123 581.111 45.336C582.524 44.9101 573.694 44.1829 569.838 42.8998C569.388 43.2569 564.33 42.4661 561.293 41.8937C560.488 41.606 561.031 41.5269 561.28 41.4596C565.593 42.6082 566.795 42.1048 571.009 42.7527C567.428 42.2482 562.61 41.0228 559.285 40.6624L561.005 40.6588C556.74 39.7217 555.67 40.4029 551.568 39.2984L552.489 39.2186C542.873 37.4689 532.564 35.0084 523.603 34.1034C522.555 34.1278 525.689 35.1341 525.651 35.2789C530.662 35.9362 533.9 36.1855 537.691 36.7229L536.943 36.9805C538.201 36.9445 542.667 37.6252 540.721 37.0505C543.921 37.4445 542.25 37.6817 545.913 38.1415C544.913 38.3662 542.889 38.0366 542.267 38.2493L545.466 38.6433C544.29 38.579 546.905 39.0522 545.77 38.9989C551.873 39.6651 552.777 40.4646 558.468 41.3876C557.539 41.1781 556.651 40.9462 555.68 40.7479C556.137 40.5911 557.784 40.955 559.132 41.1747C559.986 41.6738 560.914 41.8277 563.324 42.4682C565.977 42.83 568.032 42.8257 571.156 43.4758C569.65 43.6125 575.932 44.6902 575.817 45.0466C577.322 44.8987 582.185 46.1908 583.022 46.1446C584.835 46.4524 586.948 46.9823 586.491 47.1168C586.238 47.0728 585.648 46.9961 585.142 46.8858L586.705 47.261C586.453 47.2615 586.454 47.2949 586.244 47.262C587.68 47.5929 588.303 47.3912 589.746 47.9447C589.496 48.012 588.483 47.7915 587.597 47.6264C591.273 48.5314 595.641 48.7227 598.019 49.6749C599.068 49.695 603.544 50.6762 603.529 50.1754C604.379 50.552 603.249 50.6434 606.501 51.3712C609.107 51.5773 609.674 52.3107 612.582 52.7387C608.581 52.2128 612.332 52.806 608.795 52.3682C610.575 52.9877 614.826 53.4352 618.377 54.3738C618.549 54.5182 618.299 54.5855 618.513 54.7297C620.157 54.9823 622.428 55.1779 623.073 55.6997L623.486 55.4984C625.73 56.1838 629.32 57.0111 631.233 57.8864L635.401 58.3897C638.253 59.7861 644.789 60.9411 649.086 61.5332C650.565 61.9308 652.432 62.617 652.182 62.6843C651.76 62.6073 651.001 62.4864 650.2 62.3434C652.274 62.9624 654.146 63.86 656.331 63.9667C658.78 64.5181 657.23 64.5881 658.671 65.086C664.445 66.0089 670.533 69.0236 673.803 68.95C672.151 68.408 669.266 67.3122 665.714 66.3624C666.895 66.5603 666.592 66.2604 667.903 66.6138C671.455 67.5636 672.315 68.2741 675.951 69.2237L674.195 69.4166C678.367 71.4781 686.74 72.3399 689.101 74.1492L688.933 74.1384Z" />
<path d="M646.094 61.3637L648.007 62.2168L648.294 62.0047C647.408 61.8173 646.604 61.6075 646.094 61.3637Z" />
<path d="M648.296 62.0026C648.887 62.1238 649.478 62.245 650.026 62.3441C649.518 62.1782 648.969 62.0458 648.379 61.9468L648.296 62.0026Z" />
<path d="M698.122 77.1243C698.546 77.3015 699.396 77.6559 700.537 77.954C700.068 77.699 698.838 77.2452 698.122 77.1243Z" />
<path d="M701.16 77.9311L700.266 77.4988L699.93 77.4773L701.16 77.9311Z" />
<path d="M761.51 101.367L765.238 102.606C765.247 102.918 768.982 104.39 767.084 104.016C769.913 104.666 772.362 106.62 772.713 105.718C764.205 101.729 753.298 96.0641 741.05 91.8379L743.459 92.4451C736.517 90.3448 737.066 89.0303 730.018 87.6092L731.906 87.6275C729.733 86.4857 724.852 85.9727 723.386 84.6402L723.14 84.841C722.377 84.5532 722.33 84.3975 721.525 84.1098L721.613 84.2654C719.077 83.6141 717.93 83.1379 716.27 82.3288C716.518 82.2059 717.37 82.6382 718.089 82.8481C717.574 82.4263 715.17 82.0083 713.643 81.4327C712.788 80.9114 714.227 81.3314 714.563 81.3529C709.481 79.7163 708.278 78.7393 703.051 77.9043C702.379 77.8612 703.697 78.4595 701.75 77.8848C704.388 79.1147 707.807 79.8422 711.148 80.7702L710.385 80.4823C714.384 80.9526 711.664 81.192 715.978 82.3628C714.294 82.1549 712.766 81.5793 711.755 81.4256C714.451 83.223 718.652 83.4146 719.572 84.7594L719.234 84.66C719.661 84.9151 721.097 85.2571 722.197 85.5776C722.109 85.422 721.343 85.0562 720.874 84.7901C721.974 85.1106 723.275 85.1413 723.906 85.1956C724.132 85.7405 725.681 85.6482 726.96 86.3468C726.803 86.7033 724.893 85.9504 723.84 85.7968L726.376 86.4481C728.284 87.1231 727.365 87.2697 727.798 87.7029C729.826 88.1995 727.366 87.2809 729.347 87.6218C730.256 88.5437 738.446 91.7321 742.977 93.1584C741.578 92.6493 741.675 93.1055 740.229 92.4407C740.614 92.707 743.07 93.4587 743.654 93.3685C746.788 94.3525 749.39 95.8274 751.143 96.9256L751.131 96.5361C754.046 97.2312 755.184 98.8205 759.128 100.259L759.127 100.226C760.315 100.691 762.712 100.886 764.251 101.862C762.988 101.709 762.05 101.21 761.426 101.367L761.51 101.367Z" />
<path d="M773.962 106.642L772.063 106.256C773.003 106.844 775.494 107.384 775.824 107.194C774.89 106.84 774.287 106.296 773.658 106.297C773.66 106.375 773.326 106.409 773.962 106.653L773.962 106.642Z" />
<path d="M793.276 117.319C793.827 117.507 794.075 117.407 794.455 117.473C790.82 115.154 785.161 112.439 784.292 111.439C783.178 110.64 781.585 110.677 779.544 109.757L779.654 109.211C778.214 108.758 776.192 107.07 775.795 107.817C775.797 107.884 777.358 108.17 777.875 108.647L777.246 108.649L779.247 109.635L778.023 109.393C779.62 110.903 781.694 110.12 784.18 111.907L782.884 112.054C784.89 113.207 786.332 113.727 787.371 114.827C787.371 114.827 788.04 114.759 787.406 114.593C787.148 114.394 787.223 114.093 787.813 114.17C791.93 115.775 786.549 113.994 788.223 115.259C791.578 116.644 796.862 119.426 797.184 120.372C796.825 119.582 799.37 120.534 800.654 121.389C800.792 121.822 799.432 121.202 798.842 121.114C799.315 121.525 799.535 121.869 800.343 122.246C800.242 121.668 801.759 121.887 803.672 122.751C801.261 120.653 796.314 119.339 793.234 117.308L793.276 117.319Z" />
<path d="M795.342 117.792C794.958 117.592 794.705 117.515 794.494 117.482C794.921 117.748 795.391 118.025 795.818 118.28L795.342 117.792Z" />
<path d="M3.95392 19.2935C-0.276907 67.5298 2.96478 115.962 7.79443 164.191C10.1837 188.149 13.1601 212.106 16.9751 236.051C18.4225 245.241 21.194 255.231 46.9877 262.155C77.1365 270.24 125.224 269.349 164.674 270.001C526.485 276.056 888.968 279.317 1251.5 279.806C1455.66 280.08 1659.89 279.442 1863.96 277.958C1907.16 277.645 1909.94 261.088 1872.92 258.94C1875.47 257.398 1873.78 255.376 1866.13 255.025C1732.85 248.993 1636.62 221.847 1531.28 201.721C1475.42 191.041 1414.45 182.064 1346.31 178.455C1264.42 174.119 1181.22 176.196 1098.47 176.603C1021.63 176.986 943.857 175.479 876.341 164.835C821.721 156.223 779.511 143.155 743.408 129.485C665.134 99.8414 606.402 65.7608 498.034 42.5804C365.097 14.1421 194.514 3.45744 27.1161 11.0532C13.1662 11.6834 4.18704 15.8426 3.91164 19.2824L3.95392 19.2935Z"/>
</svg>
