<svg width="596" height="159" viewBox="0 0 596 159" fill="none" xmlns="http://www.w3.org/2000/svg">
<path d="M50.2976 95.4681C52.5665 96.3867 53.8634 98.0958 54.4521 99.6978C54.9296 101.049 54.2253 101.901 52.2116 101.831C50.6385 101.806 49.152 101.773 47.4224 101.937C44.7612 108.822 41.9683 116.156 39.3193 124.086C38.7838 125.795 37.0171 126.487 35.7202 124.778C34.6291 123.398 33.7027 121.916 33.4889 119.667C33.3409 118.11 33.5759 115.994 34.264 113.136C34.7666 111.081 35.8296 107.577 37.1437 103.962C30.8265 105.435 24.2828 107.279 19.613 107.723C17.1784 114.237 14.7849 121.184 12.4697 128.036C11.9424 129.831 10.0892 130.531 8.714 128.917C7.6476 127.797 6.69659 126.055 6.47453 123.72C6.18669 120.693 6.92836 117.481 10.2736 106.779C8.0912 105.852 7.10306 104.637 6.69135 103.978C5.46446 102.088 6.00401 101.338 8.87425 101.24C10.4391 101.178 11.0691 101.38 12.1933 101.273C17.318 87.2606 25.1075 69.155 28.9258 62.5091C30.3632 60.1909 31.9445 60.3023 33.2579 62.1844C33.9702 63.2511 34.4477 64.6018 34.6121 66.3314C34.8918 69.2716 34.3188 73.3401 32.2468 78.162L23.102 99.4506C29.5839 97.8743 34.7357 96.0754 40.394 95.0138C45.8027 81.2358 53.1968 64.4767 56.8296 58.6338C58.5018 56.0315 60.0913 56.2294 61.3429 58.3791C61.9687 59.454 62.5244 60.71 62.6725 62.2666C62.9521 65.2069 62.2844 69.1971 59.7512 74.6737C54.2808 86.8868 52.4189 91.1651 50.5653 95.5299L50.2976 95.4681Z" fill="#FBD26A"/>
<path d="M72.7032 107.213C70.1954 107.451 67.6217 106.998 65.1387 105.663C64.7308 107.796 64.5905 109.991 64.7714 111.894C65.2073 116.477 67.4141 119.496 70.5273 119.2C78.3968 118.451 84.5832 110.097 88.2985 103.286C89.2664 101.536 90.6254 101.145 91.6011 103.147C92.0375 104.065 92.4118 107.084 90.7725 110.032C87.0489 116.756 79.2075 122.388 71.095 123.334C61.4177 124.342 55.5421 118.531 54.7526 110.229C54.399 106.51 55.0502 102.347 56.8174 97.9904C61.1346 86.4978 69.0831 80.1572 75.0501 79.5897C76.5202 79.4499 77.6609 79.516 78.7644 80.1091C81.861 81.4726 84.0927 82.9183 85.6737 84.8622C86.3696 85.7558 86.95 87.2713 87.0733 88.5685C87.6655 94.7949 81.7835 106.349 72.6168 107.221L72.7032 107.213ZM66.2306 101.545C67.1447 101.982 67.853 102.089 68.5448 102.023C71.0527 101.785 74.0428 98.3593 75.8551 95.3946C78.4953 91.0422 80.1967 85.9938 78.982 85.1495C77.3103 84.0868 70.2141 91.1317 66.2306 101.545Z" fill="#FBD26A"/>
<path d="M126.134 83.6252C124.791 87.8542 120.37 104.68 120.913 110.387C121.011 111.425 121.155 112.022 121.415 111.997C121.761 111.964 122.197 111.05 123.557 108.827C126.712 103.466 129.368 99.2863 142.66 72.9784C143.245 71.7884 144.069 71.2738 145.107 71.1751C147.528 70.9448 150.987 74.2808 151.242 76.9617C151.373 78.3453 151.299 79.3995 150.063 82.9202C148.984 86.2515 147.192 92.1811 144.015 103.74C143.611 105 143.228 107.392 143.401 109.208C143.557 110.851 144.026 112.116 145.67 111.959C149.129 111.63 154.607 103.169 157.107 97.3464C157.614 96.2511 158.013 95.864 158.705 95.7982C160.262 95.6502 161.085 96.9681 161.315 99.3894C161.875 105.27 152.904 115.547 144.948 116.304C137.684 116.995 134.539 113.28 134.078 108.437C133.872 106.275 134.161 103.804 134.528 101.239C132.336 105.723 130.026 109.87 127.624 113.065C125.615 115.786 122.728 117.544 119.096 117.89C115.031 118.276 112.235 115.488 111.841 111.337C111.627 109.089 111.71 104.456 112.439 100.198C108.992 107.071 105.416 113.519 101.854 117.348C99.4649 119.757 96.7552 120.625 94.1609 120.872C91.5665 121.119 87.2511 119.784 86.8234 115.287C86.3382 110.185 87.6069 107.01 88.3773 105.017C89.7696 101.307 92.4794 100.438 94.2954 100.266C96.5439 100.052 97.5238 101.18 97.5896 101.872C97.606 102.045 97.4742 102.494 97.0994 103.14C95.9049 105.261 94.5 109.758 94.8866 113.822C94.9853 114.86 95.1375 115.543 95.4834 115.511C95.9158 115.469 96.4183 115.247 98.1934 112.81C100.838 109.417 103.54 104.797 108.4 95.3466C111.942 88.5525 115.304 79.8558 117.911 75.1576C118.504 74.054 118.974 73.4858 120.271 73.3625C122.779 73.124 126.921 76.3077 127.135 78.5561C127.275 80.0263 127.201 81.0805 126.455 83.3329L126.134 83.6252Z" fill="#FBD26A"/>
<path d="M186.776 110.151C184.268 110.39 181.937 109.739 180.385 109.014C178.873 110.554 177.415 111.74 174.982 112.756C174.063 113.193 172.618 113.592 171.321 113.715C167.861 114.044 163.83 112.944 160.528 109.419C158.292 107.014 157.218 103.974 156.905 100.688C155.82 89.2731 166.644 70.9661 176.07 70.0697C180.221 69.6749 181.856 71.2647 184.116 73.9293C184.693 74.4853 185.175 74.9631 185.837 75.5108C187.921 77.2324 189.453 78.6574 189.847 82.8084C190.834 93.1858 186.048 101.582 183.672 105.036C184.137 105.341 184.759 105.457 185.277 105.407C189.428 105.012 191.954 99.4494 194.652 93.8699C195.166 92.8611 195.558 92.3876 196.163 92.33C197.633 92.1902 198.897 93.5534 199.037 95.0235C199.169 96.4072 198.732 99.1538 197.71 101.258C195.91 105.269 192.405 109.703 186.698 110.246L186.776 110.151ZM168.06 108.79C169.789 108.625 172.063 106.838 174.081 104.203C170.071 100.571 167.707 95.9088 167.354 92.1902C165.813 96.1762 164.997 100.442 165.384 104.507C165.548 106.236 166.157 108.971 167.973 108.798L168.06 108.79ZM174.733 90.8776C174.947 93.126 175.622 96.5522 177.174 99.1097C178.912 95.3667 182.15 87.2053 181.443 79.7682C181.377 79.0764 181.155 76.7415 180.809 76.7744C178.734 76.9717 173.96 82.7486 174.733 90.8776Z" fill="#FBD26A"/>
<path d="M194.451 96.416C193.892 90.5355 195.829 83.3705 200.805 71.4662C196.308 71.8938 193.607 71.0163 192.832 70.2174C192.445 69.8179 192.334 69.5666 192.31 69.3072C192.252 68.7019 193.059 68.0143 194.443 67.8827C197.902 67.5537 200.488 67.2205 202.79 66.6525C210.905 47.3816 219.74 34.7612 224.237 34.3336C226.139 34.1527 228.408 35.0713 229.8 36.8587C231.957 39.3586 232.665 41.2982 232.97 44.4979C233.726 52.4539 225.802 60.8864 216.808 65.4067L212.727 67.4528L211.878 69.5405C213.838 68.1324 215.951 67.4079 217.94 67.2188C222.696 66.7664 227.304 72.0875 227.929 78.6598C228.356 83.1567 227.557 87.5958 225.493 92.5041C220.558 104.841 214.389 109.703 207.903 110.32C201.417 110.937 195.307 105.41 194.46 96.5025L194.451 96.416ZM216.523 72.5019C213.669 72.7733 210.123 76.7755 206.939 82.7502C204.146 88.2514 202.445 95.1323 202.905 99.9751C203.218 103.261 204.263 105.082 205.388 104.975C212.306 104.317 219.667 87.2117 218.672 76.7478C218.425 74.1535 217.742 72.4733 216.531 72.5884L216.523 72.5019ZM224.539 50.3607C226.422 47.2149 227.204 44.4353 226.982 42.1004C226.933 41.5816 226.805 41.1574 226.46 41.1903C225.508 41.2808 223.593 44.0807 221.221 48.4948C219.519 51.7107 217.633 55.7296 215.623 60.2838C219.659 56.8459 222.735 53.4119 224.539 50.3607Z" fill="#FBD26A"/>
<path d="M255.709 120.25C258.881 111.396 266.673 105.245 274.819 100.98C275.137 97.8959 274.326 95.7915 271.645 96.0464C269.397 96.2603 266.044 97.7134 263.042 100.093C261.922 101.16 260.468 101.472 259.715 99.9733C257.731 95.6245 260.066 91.7375 263.579 89.2219C277.137 79.4683 283.064 69.3059 280.157 66.2665C277.645 63.713 265.545 72.2808 258.955 81.8954C257.642 83.6783 256.044 83.3939 255.352 81.6272C254.064 78.1721 255.147 73.9678 258.764 69.7844C263.006 64.8435 269.871 60.8747 275.838 60.3072C279.384 59.97 282.517 60.8064 284.881 63.6358C286.256 65.2502 287.351 67.5893 287.548 69.6648C287.762 71.9133 287.169 74.8493 285.78 77.6864C283.659 81.9893 278.766 87.4285 273.42 91.7763C277.267 91.8469 280.132 94.4539 281.458 97.382C284.86 94.6152 288.254 89.9294 290.684 84.2881C291.401 82.6493 293.27 82.1224 294.275 83.5103C295.271 84.8117 294.884 88.0772 293.755 90.8896C291.893 95.1679 286.531 99.3428 282.396 101.743C283.346 112.648 273.992 128.982 267.679 133.248C266.698 133.952 265.702 134.483 264.491 134.598C262.848 134.754 261.312 134.202 259.488 132.456C257.656 130.623 255.515 128.296 255.194 124.923C255.079 123.713 255.277 122.123 255.796 120.241L255.709 120.25ZM264.028 117.801C260.733 123.524 261.515 128.075 263.504 127.885C264.714 127.77 267.004 124.324 269.204 119.926C271.099 115.994 272.738 111.213 273.876 106.655C269.321 110.142 265.746 114.758 263.942 117.809L264.028 117.801Z" fill="#FBD26A"/>
<path d="M329.849 102.471C328.799 101.523 327.684 99.8842 327.42 97.1169C327.281 95.6468 327.491 93.2707 328.195 90.5859C328.9 87.9011 330.066 84.5616 331.285 80.868C320.01 79.7587 315.391 73.3917 314.741 66.5599C312.817 46.324 331.424 30.9418 349.671 29.2065C351.054 29.0749 352.092 28.9762 352.965 28.9805C353.472 27.8852 353.995 26.9628 354.44 26.1352C355.869 23.7305 357.537 23.8336 358.772 25.8104C359.492 26.9636 360.003 28.6602 360.175 30.4763C369.087 30.5887 375.576 36.4288 376.217 43.1741C377.911 60.9887 363.636 77.8786 341.21 80.6222C338.19 88.3265 335.327 95.8414 333.267 101.709C332.592 103.78 331.579 104.139 329.763 102.479L329.849 102.471ZM332.958 76.4332C337.786 62.9722 344.817 46.073 350.197 34.7411C337.74 38.6309 323.736 54.7096 324.929 67.249C325.464 72.8701 327.922 75.7777 332.958 76.4332ZM343.648 75.0674C356.723 70.3336 367.98 55.6504 366.664 41.8139C366.211 37.0576 364.322 34.6195 360.158 33.9683C359.767 36.2743 358.914 39.235 357.472 42.4262C354.362 49.1793 348.871 62.0925 343.656 75.1539L343.648 75.0674Z" fill="#FBD26A"/>
<path d="M409.132 74.6123C407.167 80.5584 404.238 85.549 401.121 88.5505C408.669 86.262 413.9 78.8709 416.351 72.5296C417.331 69.9931 419.629 70.2981 420.172 72.3407C420.444 73.362 420.897 76.2858 419.377 79.5717C415.505 88.4042 407.05 92.1751 398.489 92.9893C389.927 93.8035 384.908 91.4885 382.038 86.0895C378.261 95.0003 374.698 104.327 371.258 114.951C370.574 116.936 369.396 117.397 368.243 116.285C366.497 114.444 365.839 113.023 365.633 110.861C365.477 109.218 365.617 107.023 366.202 104C368.291 93.8541 382.347 59.9693 387.932 50.7994C389.62 48.37 390.951 48.5926 391.93 49.721C392.91 50.8495 393.207 52.1302 393.33 53.4274C395.76 51.4511 398.655 49.7796 401.422 49.5164C407.649 48.9243 411.21 54.2575 411.712 59.5327C412.139 64.0296 410.998 69.461 409.045 74.6205L409.132 74.6123ZM387.904 72.5299C385.338 79.493 386.737 86.8643 389.418 86.6094C392.617 86.3051 396.744 80.1534 400.168 71.1891C402.215 66.1078 402.916 60.631 402.595 57.2583C402.414 55.3558 402.126 54.1616 401.591 54.0379C399.606 53.3541 394.359 58.7397 390.664 66.6827L387.912 72.6163L387.904 72.5299Z" fill="#FBD26A"/>
<path d="M440.241 44.7622C443.96 44.4085 446.476 46.089 447.596 48.6876L449.28 45.2987C450.294 43.1081 452.101 42.8489 453.452 44.2039C455.379 46.1149 456.766 50.6078 454.595 56.2244C452.457 62.1869 444.8 74.3462 445.458 81.2645C445.606 82.8211 446.129 83.7312 447.167 83.6325C450.885 83.2789 455.4 75.6942 458.217 68.62C459.144 66.4376 460.087 66.2606 461.33 68.3239C461.853 69.234 462.722 71.9438 461.54 75.1103C459.401 81.0728 453.261 87.1542 446.948 87.7546C441.759 88.248 438.477 85.8551 437.329 82.0376C434.582 85.2657 430.216 88.9095 426.065 89.3042C419.925 89.8881 416.212 85.7038 415.636 79.6503C415.208 75.1534 416.56 69.1784 419.785 63.6361C426.952 50.9126 434.966 45.2638 440.241 44.7622ZM438.822 68.3702C442.212 60.8925 443.551 55.704 443.296 53.0232C443.181 51.8125 442.934 51.0507 441.896 51.1493C439.82 51.3467 433.268 58.6017 428.799 67.5782C426.146 72.7171 424.943 78.4162 425.255 81.7024C425.436 83.6049 425.984 84.7745 427.021 84.6758C430.481 84.3468 434.637 77.5815 438.908 68.362L438.822 68.3702Z" fill="#FBD26A"/>
<path d="M457.653 85.6158C456.043 84.2855 455.1 82.63 454.862 80.1221C454.714 78.5655 454.895 76.803 455.303 74.67C455.637 73.5911 456.016 72.0716 456.56 70.4492C454.468 70.4737 456.05 65.0876 458.949 64.3756C461.783 57.4743 465.47 49.4447 468.88 43.0994C470.075 40.9788 471.64 40.9173 472.858 42.7211C473.958 44.1872 474.76 46.2052 474.933 48.0212C475.106 49.8373 474.846 51.6944 473.973 53.5227C473.046 55.7051 471.893 58.258 470.669 60.9922C473.898 60.0743 477.015 58.9053 479.865 57.6744C482.106 51.8766 484.709 46.2189 486.748 42.8836C488.107 40.6601 489.302 40.372 490.833 41.797C491.978 42.8225 492.843 44.5728 493.056 46.8212C493.394 50.3668 491.791 54.6205 489.196 60.3647C485.851 67.4018 483.754 73.7967 484.067 77.0829C484.223 78.726 484.746 79.6361 485.784 79.5374C489.935 79.1427 495.4 71.4675 497.942 64.245C498.704 62.1655 500.31 62.5364 501.442 64.3484C502.472 65.9957 502.442 68.4418 501.487 71.2378C498.904 78.0279 491.54 83.1785 485.314 83.7706C479.087 84.3628 475.802 81.0103 475.308 75.8216C475.119 73.8326 475.346 71.6295 476.042 68.8582C476.359 67.6064 476.825 66.0787 477.369 64.4563C474.408 65.436 471.196 66.5268 468.053 67.4365C465.561 73.3454 463.094 79.5138 461.392 84.5622C460.857 86.271 459.531 87.008 457.731 85.5211L457.653 85.6158Z" fill="#FBD26A"/>
<path d="M527.981 80.0521C521.841 80.636 518.345 77.8271 517.555 73.1901C514.458 77.3242 510.463 81.1945 505.447 81.6715C499.393 82.2472 496.94 78.4666 496.52 74.0562C496.306 71.8077 496.508 69.3452 497.221 66.7469C498.853 60.0472 503.055 49.1763 508.763 39.4711C509.216 38.7299 510.048 38.3018 510.913 38.2195C513.507 37.9728 514.985 41.5844 515.166 43.487C515.454 46.5137 514.618 49.6474 512.628 53.5015C509.712 59.538 507.953 63.9811 506.252 69.0295C505.498 71.1954 505.254 73.2255 505.394 74.6957C505.534 76.1658 505.979 77.1706 506.67 77.1049C509.87 76.8006 514.846 68.5612 519.13 60.3876C521.696 55.257 523.43 50.5545 525.09 46.9062C526.734 43.085 528.019 40.0832 529.596 37.4026C530.12 36.4802 530.589 35.912 531.54 35.8215C534.221 35.5666 535.724 39.4377 535.888 41.1672C536.176 44.194 535.9 45.8782 535.014 48.493C534.166 50.5807 532.777 53.4178 531.476 56.2466C530.009 59.1784 527.929 63.9138 527.052 66.6151C526.314 68.954 525.923 71.26 526.079 72.903C526.243 74.6326 526.878 75.794 528.261 75.6624C532.845 75.2265 536.519 67.9835 539.761 60.7816C540.127 60.0487 540.527 59.6616 541.132 59.6041C543.035 59.4231 543.458 61.128 543.557 62.1658C543.689 63.5494 543.956 65.4437 540.9 71.8426C537.695 78.5174 533.135 88.3752 532.29 96.9198C532.183 97.6281 531.565 98.4722 530.527 98.5709C530.008 98.6203 529.11 98.3566 528.732 98.0436C526.932 96.5567 525.878 94.65 525.665 92.4015C525.451 90.1531 526.163 87.5548 527.214 84.8371C527.712 83.6553 528.524 82.0947 529.797 79.8794C529.113 80.0317 528.594 80.081 527.816 80.155L527.981 80.0521Z" fill="#FBD26A"/>
<path d="M548.531 77.7545C542.218 78.3549 539.106 74.986 538.612 69.7973C538.423 67.8083 538.65 65.6052 539.173 62.8504C541.077 55.3395 546.592 42.6857 549.888 36.9622C551.247 34.7387 552.441 34.4506 553.973 35.8756C556.159 37.7619 557.365 42.1848 555.178 47.6284C553.616 52.3145 549.6 60.5498 548.257 64.7788C547.536 67.2907 547.223 69.502 547.379 71.1451C547.536 72.7881 548.058 73.6983 549.183 73.5914C553.334 73.1966 558.037 65.7685 560.649 58.3647C561.333 56.3799 562.655 56.516 563.779 58.2416C564.894 59.8807 565.055 62.4833 563.934 65.3822C561.438 72.1641 554.68 77.2571 548.54 77.841L548.531 77.7545ZM556.816 23.5633C559.756 23.2837 562.877 26.7391 563.165 29.7658C563.428 32.5331 562.102 35.1025 559.507 35.3493C556.221 35.6618 553.071 32.82 552.767 29.6203C552.487 26.68 554.394 23.7936 556.816 23.5633Z" fill="#FBD26A"/>
<path d="M569.374 75.7726C563.061 76.373 559.948 73.004 559.455 67.8153C559.266 65.8263 559.492 63.6233 560.016 60.8684C561.919 53.3575 567.435 40.7038 570.73 34.9803C572.089 32.7567 573.284 32.4687 574.815 33.8937C577.002 35.78 578.208 40.2029 576.02 45.6465C574.459 50.3325 570.443 58.5679 569.1 62.7969C568.379 65.3087 568.065 67.52 568.222 69.1631C568.378 70.8062 568.901 71.7163 570.025 71.6094C574.176 71.2147 578.88 63.7865 581.492 56.3828C582.175 54.398 583.497 54.5341 584.621 56.2597C585.737 57.8988 585.897 60.5013 584.777 63.4002C582.28 70.1822 575.522 75.2752 569.382 75.8591L569.374 75.7726ZM567.964 24.2485C568.85 21.6337 571.296 19.8304 573.73 20.646C575.715 21.3299 576.966 23.4796 575.994 26.1027C575.1 28.631 572.543 30.1831 570.41 29.7751C568.425 29.0913 567.157 26.7686 567.964 24.2485ZM579.025 23.1093C579.997 20.4863 582.617 18.6665 584.869 19.4122C587.216 20.2361 587.862 22.4434 587.133 24.8688C586.248 27.4836 583.558 29.4845 581.298 28.6524C579.115 27.7256 578.028 25.4729 579.025 23.1093Z" fill="#FBD26A"/>
</svg>
