<svg viewBox="0 0 63 63" xmlns="http://www.w3.org/2000/svg">
<path fill-rule="evenodd" clip-rule="evenodd" d="M54.6356 31.2558C54.6356 43.8155 44.3726 54.0002 31.715 54.0002C27.6943 54.0002 23.9183 52.9742 20.6348 51.1702L7.94141 55.204L12.0779 43.0015C9.9901 39.5729 8.78959 35.5538 8.78959 31.2574C8.78959 18.6929 19.0526 8.50977 31.7134 8.50977C44.3742 8.50977 54.634 18.6929 54.634 31.2558M31.7134 12.1325C21.0834 12.1325 12.44 20.7106 12.44 31.2558C12.44 35.438 13.802 39.3136 16.1101 42.4681L13.7042 49.5684L21.1095 47.2164C24.1515 49.2128 27.7971 50.3775 31.7134 50.3775C42.3386 50.3775 50.9835 41.7994 50.9835 31.2558C50.9835 20.7122 42.3386 12.1325 31.7134 12.1325ZM43.2879 36.495C43.146 36.2617 42.7708 36.1231 42.2113 35.8442C41.6486 35.5652 38.8855 34.2163 38.37 34.0303C37.8562 33.8444 37.4778 33.7514 37.1059 34.3093C36.7308 34.8671 35.6542 36.1231 35.3247 36.495C34.9985 36.8685 34.6706 36.9125 34.1095 36.6352C33.5468 36.3563 31.7346 35.7659 29.5897 33.8689C27.9211 32.3894 26.7923 30.5658 26.4628 30.008C26.1366 29.4501 26.4302 29.15 26.7091 28.8711C26.9619 28.6199 27.2719 28.2203 27.5524 27.8957C27.8346 27.5695 27.9276 27.3362 28.1152 26.9627C28.3027 26.5908 28.2098 26.2662 28.0679 25.9873C27.9292 25.7083 26.8037 22.9648 26.3356 21.8475C25.8691 20.7334 25.401 20.7742 25.0715 20.7742C24.742 20.7742 24.1385 20.8721 24.1385 20.8721C24.1385 20.8721 23.0114 21.0107 22.4976 21.5685C21.9838 22.1264 20.5321 23.4753 20.5321 26.2173C20.5321 28.9592 22.5432 31.613 22.8238 31.9833C23.106 32.3568 26.7091 38.1701 32.423 40.4015C38.1352 42.6329 38.1352 41.8891 39.166 41.7945C40.1953 41.7031 42.4903 40.4472 42.9584 39.1439C43.4282 37.8423 43.4282 36.725 43.2879 36.4933"/>
</svg>
