<svg viewBox="0 0 707 702" fill="none" xmlns="http://www.w3.org/2000/svg" preserveAspectRatio="none">
<path fill-rule="evenodd" clip-rule="evenodd" d="M0 0H706.5V701.27H0V0ZM213.141 601.324C224.072 614.189 240.931 620.617 258.462 620.655C286.385 620.641 309.557 602.599 325.686 581.169C336.184 567.232 344.109 551.816 352.038 536.393C358.644 523.542 365.253 510.687 373.354 498.68C393.501 468.829 423.171 453.365 455.831 440.526C457.851 439.73 459.871 438.938 461.89 438.146C488.526 427.703 514.905 417.36 538.175 400.27C560.475 383.922 579.825 362.867 591.68 337.701C612.618 293.35 606.853 233.347 566.925 201.204C526.522 168.696 469.521 176.088 425.648 196.725C423.285 197.84 420.925 198.97 418.565 200.1C394.808 211.477 371.05 222.854 343.831 217.864C325.004 214.409 307.627 205.832 290.521 197.389L290.52 197.388C287.814 196.053 285.116 194.721 282.419 193.413C246.592 176.082 203.469 161.584 170.72 193.626C128.324 235.11 143.722 298.503 165.979 345.506C169.372 352.663 172.924 359.758 176.477 366.854L176.478 366.855L176.478 366.856C187.779 389.429 199.086 412.013 205.306 436.622C209.299 452.345 211.18 468.885 208.886 485.046C207.276 496.268 202.891 506.042 198.443 515.953L198.443 515.954C196.294 520.743 194.131 525.564 192.259 530.597C183.293 554.688 190.019 583.14 210.462 599.441C211.178 599.991 211.888 600.494 212.606 601.003C212.761 601.113 212.915 601.222 213.071 601.333L213.141 601.324ZM517.495 478.852C543.079 475.091 570.643 469.341 588.189 450.976L588.184 450.959C589.996 449.065 591.754 447.084 593.508 445.106C602.485 434.987 611.393 424.946 627.258 427.049C639.11 428.624 645.086 436.993 646.685 447.591C649.161 463.88 642.084 481.352 635.129 498.525C630.743 509.353 626.406 520.062 624.542 530.281C622.995 538.796 621.953 547.482 620.911 556.172C618.019 580.287 615.123 604.43 601.42 625.032C580.734 656.123 537.384 671.255 500.333 663.557C463.281 655.859 433.802 627.721 422.017 594.047C411.098 562.85 416.427 523.51 444.359 501.818C463.831 486.698 489.833 482.896 514.552 479.283C515.536 479.139 516.517 478.995 517.495 478.852Z" fill="#F8F8F3"/>
<path fill-rule="evenodd" clip-rule="evenodd" d="M575.723 209.292C569.991 199.076 562.425 189.851 552.925 182.204C512.522 149.696 455.521 157.087 411.648 177.725C409.285 178.839 406.925 179.969 404.565 181.099C380.808 192.476 357.05 203.853 329.831 198.863C311.003 195.408 293.627 186.831 276.521 178.388C273.815 177.052 271.116 175.72 268.419 174.412C232.592 157.082 189.468 142.584 156.72 174.625C114.324 216.109 129.722 279.502 151.979 326.506C155.372 333.663 158.925 340.758 162.478 347.855C173.779 370.428 185.086 393.012 191.306 417.621C195.299 433.344 197.18 449.884 194.886 466.046C193.276 477.267 188.89 487.041 184.443 496.952C182.294 501.742 180.13 506.564 178.259 511.596C169.656 534.712 175.5 561.842 194.046 578.401C187.227 563.627 186.452 546.197 192.259 530.596C194.13 525.564 196.293 520.743 198.442 515.954L198.442 515.954L198.443 515.953L198.443 515.953C202.89 506.041 207.276 496.267 208.886 485.046C211.18 468.884 209.299 452.344 205.306 436.621C199.086 412.012 187.779 389.428 176.478 366.855L176.478 366.855L176.477 366.853C172.924 359.757 169.372 352.662 165.979 345.506C143.722 298.502 128.324 235.109 170.719 193.625C203.468 161.584 246.592 176.082 282.419 193.412C285.115 194.72 287.814 196.052 290.519 197.387L290.52 197.388L290.521 197.388C307.627 205.831 325.003 214.408 343.831 217.863C371.05 222.853 394.808 211.476 418.565 200.099C420.925 198.969 423.285 197.839 425.648 196.725C469.521 176.087 526.522 168.696 566.925 201.204C570.068 203.734 573 206.437 575.723 209.292Z" fill="#FBD26A"/>
<path d="M406.062 486.544C429.701 454.755 470.975 442.532 509.566 433.763C548.158 424.995 589.443 416.499 617.7 388.747C656.683 350.457 657.815 285.674 635.467 235.857C611.347 182.084 561.063 139.169 502.818 130.407C444.573 121.645 380.752 150.808 354.574 203.7C330.985 251.377 339.265 307.697 336.061 360.79C333.397 404.431 305.935 455.131 316.891 498.083C321.243 515.223 331.914 528.275 350.386 529.628C379.945 531.785 391.136 506.622 406.073 486.572L406.062 486.544Z" stroke="#2F3924" stroke-width="0.656942" stroke-linecap="round" stroke-linejoin="round"/>
<path d="M571.109 451.726L571.312 451.514L571.306 451.496C573.054 449.66 574.757 447.74 576.451 445.831C577.377 444.787 578.301 443.746 579.227 442.723C581.924 439.747 584.663 436.908 587.638 434.511C593.571 429.731 600.435 426.714 609.751 427.949C615.565 428.721 619.909 431.153 622.999 434.671C626.096 438.195 627.96 442.84 628.749 448.07L628.749 448.071C630.746 461.206 626.465 475.161 621.027 489.21C619.803 492.374 618.519 495.544 617.237 498.708C612.847 509.545 608.483 520.321 606.609 530.595L606.609 530.595C605.146 538.649 604.134 546.852 603.149 555.051C603.09 555.539 603.032 556.026 602.973 556.514C602.048 564.229 601.124 571.934 599.847 579.523C597.131 595.659 592.826 611.231 583.562 625.159C563.004 656.058 519.872 671.134 482.993 663.472C446.125 655.812 416.779 627.806 405.048 594.285L404.576 594.451L405.048 594.285C394.176 563.226 399.511 524.14 427.224 502.617C446.589 487.579 472.471 483.795 497.232 480.174C498.198 480.033 499.164 479.892 500.127 479.75C525.696 475.992 553.43 470.229 571.109 451.726Z" stroke="#2F3924"/>
</svg>
