<svg viewBox="0 0 631 608" fill="none" xmlns="http://www.w3.org/2000/svg" preserveAspectRatio="none">
<path fill-rule="evenodd" clip-rule="evenodd" d="M630.16 0H0V607.26H630.16V0ZM308.438 145.745C311.971 133.383 315.497 121.044 320.632 109.556L320.691 109.545C332.927 82.044 352.472 57.55 377.928 41.2268C427.584 9.37189 501.547 18.7648 531.046 74.0134C552.775 114.775 534.891 157.406 518.095 197.443C513.472 208.462 508.932 219.284 505.323 229.817C493.382 264.606 495.706 292.071 513.541 324.46C530.004 354.479 540.803 383.687 535.088 418.385C524.824 480.456 467.849 525.221 404.92 520.385C388.369 519.127 372.728 513.448 357.123 507.783C340.167 501.627 323.252 495.486 305.255 495.045C275.851 494.301 261.475 515.155 246.982 536.18C241.588 544.004 236.179 551.852 229.972 558.619C226.784 562.107 223.447 565.133 219.982 567.817C221.636 570.377 221.474 574.325 218.074 576.384C156.29 613.623 77.0112 558.916 91.2407 487.515C92.5518 480.842 94.8806 474.264 97.2128 467.676C101.661 455.112 106.121 442.512 103.561 429.15C101.897 420.466 98.5503 412.421 95.2006 404.369C91.3309 395.067 87.4572 385.755 86.1693 375.438C82.2327 344.67 91.2749 312.64 110.066 288.046C128.809 263.522 155 251.036 184.367 243.94C190.979 242.343 197.819 240.967 204.725 239.578C234.967 233.493 266.46 227.157 285.504 200.936C297.331 184.612 302.893 165.149 308.438 145.745Z" fill="#F8F8F3"/>
<path fill-rule="evenodd" clip-rule="evenodd" d="M308.437 145.744L308.437 145.745C302.892 165.149 297.33 184.612 285.503 200.935C266.46 227.157 234.966 233.493 204.724 239.577C197.818 240.967 190.978 242.343 184.366 243.94C154.999 251.036 128.808 263.521 110.065 288.045C91.274 312.64 82.2317 344.67 86.1684 375.437C86.2125 375.791 86.2597 376.143 86.3098 376.494C85.7195 374.066 85.247 371.592 84.9305 369.057C80.9939 338.29 90.0362 306.26 108.827 281.665C127.57 257.141 153.762 244.655 183.128 237.56C189.74 235.963 196.58 234.586 203.486 233.197C233.728 227.113 265.222 220.776 284.265 194.555C296.092 178.231 301.654 158.768 307.2 139.364C307.2 139.364 307.2 139.364 307.2 139.364C310.732 127.002 314.258 114.663 319.394 103.175L319.453 103.164C331.689 75.6632 351.233 51.1692 376.689 34.846C426.345 2.99108 500.308 12.384 529.807 67.6326C534.542 76.5157 537.396 85.4875 538.79 94.5019C537.181 87.6342 534.661 80.7977 531.045 74.013C501.546 18.7643 427.583 9.37145 377.927 41.2264C352.471 57.5496 332.926 82.0436 320.69 109.544L320.631 109.555C315.496 121.043 311.97 133.382 308.437 145.744ZM499.098 284.816C501.163 297.768 505.946 310.667 513.54 324.459C522.65 341.071 530.026 357.434 533.829 374.616C530.577 355.075 522.533 336.734 512.303 318.079C505.955 306.552 501.572 295.648 499.098 284.816ZM90.4864 516.509C89.0861 507.317 89.2335 497.581 91.2398 487.515C92.5509 480.842 94.8797 474.264 97.2119 467.676C101.66 455.112 106.12 442.512 103.56 429.15C103.321 427.904 103.048 426.671 102.745 425.45C104.284 437.823 100.123 449.575 95.9741 461.295C93.6418 467.883 91.3131 474.461 90.002 481.134C87.5248 493.564 87.8815 505.488 90.4864 516.509Z" fill="#FBD26A"/>
<path d="M252.305 206.144L252.305 206.143C261.221 193.843 266.258 179.624 270.572 165.154C271.532 161.934 272.456 158.703 273.378 155.478C276.58 144.281 279.763 133.15 284.375 122.766L284.429 122.756L284.552 122.481C295.704 97.4258 313.511 75.1238 336.686 60.2669C381.888 31.2764 449.119 39.8755 475.899 90.0203C488.468 113.592 486.445 137.873 479.327 161.898C475.767 173.913 470.939 185.844 466.036 197.577C465.367 199.179 464.696 200.778 464.027 202.372C459.799 212.446 455.637 222.361 452.329 232.011C446.848 247.971 444.631 262.282 445.844 276.336C447.056 290.389 451.697 304.147 459.881 319.005C474.912 346.408 484.715 372.971 479.517 404.506C470.176 460.962 418.332 501.683 361.078 497.289L361.078 497.289C346.022 496.146 331.786 490.98 317.493 485.793C316.884 485.572 316.275 485.351 315.666 485.13C300.787 479.739 285.811 474.513 269.9 474.125C251.211 473.654 239.078 482.618 229.031 494.489C224.442 499.91 220.276 505.953 216.118 511.983C215.731 512.544 215.344 513.104 214.957 513.665C210.402 520.258 205.809 526.77 200.607 532.44L200.606 532.441C197.714 535.604 194.686 538.349 191.542 540.784L191.124 541.108L191.411 541.553C192.785 543.679 192.626 546.899 189.851 548.58C133.766 582.375 61.8053 532.723 74.7234 467.941L74.7237 467.94C75.9149 461.881 78.0215 455.934 80.1477 449.931C81.1188 447.19 82.094 444.437 82.9879 441.656C85.8243 432.834 87.807 423.814 85.9951 414.358C84.4622 406.358 81.3796 398.95 78.3207 391.598C78.0814 391.024 77.8424 390.449 77.6042 389.875C74.3121 381.935 71.1857 374.001 70.0982 365.288L70.098 365.286C66.5194 337.312 74.7459 308.179 91.8439 285.808C108.878 263.528 132.691 252.161 159.476 245.689C165.512 244.232 171.752 242.976 178.065 241.706C180.245 241.267 182.433 240.827 184.624 240.376C193.153 238.621 201.717 236.707 209.939 234.114C226.384 228.927 241.507 221.007 252.305 206.144Z" stroke="#2F3924" stroke-width="1.1528"/>
</svg>
