<svg viewBox="0 0 631 690" fill="none" xmlns="http://www.w3.org/2000/svg" preserveAspectRatio="none">
<path fill-rule="evenodd" clip-rule="evenodd" d="M0 0H630.16V689.26H0V0ZM333.242 195.814C328.107 207.302 324.581 219.641 321.048 232.003C315.503 251.408 309.941 270.87 298.113 287.194C279.07 313.415 247.577 319.752 217.335 325.836C210.429 327.226 203.588 328.602 196.976 330.199C167.61 337.294 141.419 349.78 122.676 374.304C103.885 398.899 94.8425 430.929 98.7791 461.696C100.067 472.013 103.941 481.325 107.81 490.627C111.16 498.679 114.507 506.725 116.171 515.408C118.731 528.77 114.27 541.37 109.823 553.934C107.49 560.522 105.162 567.1 103.851 573.773C89.621 645.174 168.9 699.882 230.684 662.643C234.084 660.583 234.246 656.635 232.592 654.075C236.057 651.392 239.394 648.365 242.582 644.878C248.788 638.111 254.198 630.263 259.592 622.439L259.592 622.438C274.085 601.414 288.461 580.559 317.865 581.304C335.862 581.744 352.776 587.885 369.732 594.041L369.732 594.041L369.733 594.041C385.339 599.707 400.979 605.385 417.53 606.643C480.459 611.479 537.434 566.715 547.698 504.643C553.413 469.945 542.614 440.738 526.151 410.718C508.316 378.329 505.991 350.864 517.932 316.075C521.542 305.542 526.082 294.72 530.704 283.701C547.5 243.664 565.385 201.033 543.655 160.272C514.156 105.023 440.194 95.6302 390.538 127.485C365.082 143.808 345.537 168.302 333.301 195.803L333.242 195.814ZM181.421 316.306C172.932 317.262 164.413 315.088 158.407 309.468L158.373 309.476C158.292 309.431 158.211 309.387 158.131 309.343C157.754 309.136 157.383 308.932 157.005 308.705C146.203 301.951 141.365 288.551 144.366 276.39C144.992 273.85 145.772 271.395 146.546 268.957C148.148 263.912 149.728 258.937 149.883 253.415C150.095 245.464 148.265 237.561 145.458 230.172C141.079 218.605 134.35 208.3 127.624 198.001C125.51 194.763 123.396 191.526 121.355 188.25C107.967 166.733 96.9894 136.9 115.207 114.461C129.279 97.1298 150.961 101.751 169.268 108.149C170.646 108.632 172.027 109.127 173.411 109.623C182.161 112.76 191.05 115.946 200.356 116.572C213.81 117.474 224.679 110.646 235.547 103.818C236.627 103.139 237.706 102.461 238.789 101.79C258.88 89.3607 286.063 82.6139 307.429 96.1047C328.545 109.445 334.671 138.172 327.001 160.806C322.66 173.648 314.464 184.916 304.578 194.07C294.262 203.636 282.068 210.11 269.754 216.646C268.82 217.142 267.887 217.637 266.953 218.135C251.856 226.166 238.353 235.301 230.259 250.872C227.005 257.135 224.52 263.726 222.036 270.314C219.056 278.221 216.076 286.124 211.769 293.455C205.152 304.725 194.938 314.747 181.421 316.306Z" fill="#F8F8F3"/>
<path fill-rule="evenodd" clip-rule="evenodd" d="M321.047 232.003C324.58 219.64 328.106 207.302 333.241 195.814L333.3 195.802C345.536 168.302 365.081 143.808 390.537 127.485C440.193 95.6297 514.155 105.023 543.654 160.271C547.022 166.589 549.439 172.952 551.055 179.343C549.776 169.709 546.865 160.12 541.807 150.632C512.308 95.383 438.345 85.9901 388.689 117.845C363.233 134.168 343.689 158.662 331.453 186.163L331.394 186.174C326.258 197.662 322.732 210.001 319.199 222.363C313.654 241.768 308.092 261.23 296.265 277.554C277.222 303.775 245.728 310.112 215.486 316.196C208.58 317.585 201.74 318.962 195.128 320.559C165.762 327.654 139.57 340.14 120.827 364.664C102.036 389.259 92.9939 421.289 96.9305 452.056C97.3124 455.115 97.9217 458.086 98.6908 460.994C94.9794 430.442 104.026 398.711 122.675 374.304C141.418 349.78 167.609 337.294 196.976 330.198C203.588 328.601 210.428 327.225 217.334 325.836C247.576 319.751 279.069 313.415 298.112 287.194C309.94 270.87 315.502 251.407 321.047 232.003L321.047 232.003ZM114.908 509.992C115.937 521.8 111.951 533.062 107.974 544.294C105.642 550.882 103.313 557.46 102.002 564.133C99.4168 577.105 99.918 589.525 102.84 600.944C101.723 592.291 101.975 583.177 103.85 573.773C105.161 567.1 107.489 560.522 109.822 553.934C114.27 541.37 118.73 528.77 116.17 515.408C115.819 513.576 115.393 511.773 114.908 509.992ZM546.128 459.506C543.092 439.255 534.863 420.333 524.303 401.078C518.232 390.053 513.958 379.598 511.432 369.231C513.326 382.805 518.195 396.271 526.15 410.717C535.018 426.887 542.242 442.822 546.128 459.506Z" fill="#FBD26A"/>
<path d="M149.534 298.917L149.733 299.102C155.611 304.603 163.974 306.753 172.348 305.81C185.64 304.276 195.742 294.41 202.322 283.201L202.322 283.201C206.246 276.523 209.066 269.358 211.807 262.114C212.056 261.455 212.305 260.795 212.554 260.134C215.036 253.551 217.531 246.932 220.8 240.642L221.243 240.872L220.8 240.641C228.966 224.931 242.584 215.736 257.702 207.693M149.534 298.917L257.937 208.135M149.534 298.917L149.427 298.943M149.534 298.917L149.427 298.943M257.702 207.693L257.937 208.135M257.702 207.693C257.702 207.693 257.702 207.694 257.702 207.694L257.937 208.135M257.702 207.693C258.633 207.198 259.563 206.704 260.492 206.211C272.818 199.667 284.957 193.223 295.222 183.703L295.222 183.703C305.062 174.592 313.204 163.392 317.511 150.646L317.511 150.645C325.128 128.17 319.018 99.7136 298.146 86.5274M257.937 208.135C258.871 207.637 259.805 207.142 260.738 206.646C273.052 200.11 285.247 193.636 295.562 184.07C305.448 174.916 313.645 163.648 317.985 150.806C325.655 128.172 319.529 99.4454 298.413 86.1047C277.047 72.6139 249.864 79.3607 229.773 91.7902M298.146 86.5274C298.146 86.5274 298.146 86.5274 298.146 86.5274L298.406 86.1162L298.146 86.5274ZM298.146 86.5274C277.021 73.1887 250.063 79.8255 230.036 92.2154M230.036 92.2154C230.036 92.2154 230.036 92.2153 230.036 92.2152L229.773 91.7902M230.036 92.2154L229.773 91.7902M230.036 92.2154C228.953 92.8868 227.87 93.5671 226.786 94.2485C215.941 101.065 204.932 107.984 191.307 107.071L191.34 106.578L191.307 107.071C181.926 106.439 172.964 103.226 164.218 100.091C162.836 99.5956 161.459 99.102 160.087 98.6209M229.773 91.7902C228.691 92.4609 227.611 93.1393 226.532 93.8176C215.663 100.646 204.795 107.474 191.341 106.572C182.034 105.945 173.146 102.76 164.395 99.6231C163.011 99.127 161.631 98.6322 160.252 98.1489M160.252 98.1489L160.087 98.6209M160.252 98.1489C141.945 91.7508 120.263 87.1298 106.191 104.461C87.9738 126.9 98.9518 156.733 112.339 178.25M160.252 98.1489L160.087 98.6207C160.087 98.6208 160.087 98.6208 160.087 98.6209M160.087 98.6209C150.946 95.4261 141.019 92.697 131.645 92.9064C122.294 93.1152 113.506 96.2457 106.579 104.777C97.5832 115.857 95.7827 128.769 97.9067 141.62C100.033 154.482 106.088 167.256 112.764 177.985M112.339 178.25L112.764 177.985M112.339 178.25C114.38 181.526 116.494 184.763 118.609 188.001C125.334 198.3 132.063 208.605 136.442 220.172M112.339 178.25L112.764 177.985C112.764 177.985 112.764 177.985 112.764 177.985M112.764 177.985C114.792 181.241 116.897 184.465 119.007 187.695C125.739 198.004 132.51 208.372 136.91 219.995M136.442 220.172L136.91 219.994C136.91 219.995 136.91 219.995 136.91 219.995M136.442 220.172C139.249 227.561 141.079 235.464 140.867 243.415C140.712 248.937 139.132 253.912 137.53 258.957C136.756 261.395 135.977 263.85 135.351 266.39C132.349 278.551 137.187 291.95 147.989 298.705M136.442 220.172L136.91 219.995M136.91 219.995C139.732 227.424 141.581 235.393 141.367 243.428L141.367 243.429C141.25 247.588 140.338 251.431 139.223 255.192C138.83 256.516 138.415 257.824 138 259.132C137.229 261.559 136.459 263.984 135.836 266.51L135.836 266.51C132.883 278.475 137.648 291.647 148.251 298.279M148.251 298.279C148.249 298.278 148.248 298.277 148.247 298.276L147.989 298.705M148.251 298.279C148.617 298.499 148.978 298.697 149.352 298.902C149.377 298.916 149.402 298.93 149.427 298.943M148.251 298.279C148.252 298.28 148.253 298.28 148.255 298.281L147.989 298.705M147.989 298.705L149.427 298.943" stroke="#2F3924"/>
<path d="M251.295 291.586L251.296 291.586C260.211 279.285 265.249 265.066 269.562 250.597C270.522 247.377 271.446 244.146 272.368 240.921C275.57 229.723 278.753 218.593 283.365 208.208L283.419 208.198L283.542 207.923C294.694 182.868 312.501 160.566 335.676 145.709C380.878 116.719 448.109 125.318 474.89 175.463C487.458 199.034 485.436 223.316 478.317 247.341C474.758 259.355 469.929 271.286 465.027 283.019C464.357 284.621 463.686 286.22 463.017 287.815C458.789 297.888 454.628 307.803 451.319 317.453C445.839 333.413 443.621 347.725 444.834 361.778C446.047 375.832 450.687 389.59 458.871 404.448C473.902 431.85 483.705 458.413 478.507 489.948C469.166 546.404 417.322 587.126 360.068 582.731L360.068 582.731C345.012 581.588 330.776 576.422 316.484 571.236C315.874 571.015 315.265 570.794 314.656 570.573C299.777 565.182 284.801 559.956 268.891 559.568C250.201 559.096 238.068 568.061 228.021 579.932C223.433 585.352 219.266 591.395 215.108 597.425C214.721 597.986 214.334 598.547 213.947 599.107C209.393 605.701 204.8 612.213 199.597 617.883L199.596 617.883C196.704 621.047 193.677 623.792 190.533 626.226L190.114 626.55L190.401 626.995C191.775 629.122 191.616 632.342 188.842 634.022C132.757 667.817 60.7955 618.165 73.7136 553.384L73.7139 553.382C74.9051 547.324 77.0117 541.376 79.1379 535.374C80.1091 532.632 81.0843 529.879 81.9782 527.099C84.8146 518.276 86.7972 509.256 84.9853 499.8C83.4524 491.8 80.3698 484.392 77.3109 477.041C77.0717 476.466 76.8326 475.891 76.5945 475.317C73.3023 467.377 70.1759 459.443 69.0884 450.73L69.0882 450.728C65.5096 422.755 73.7361 393.621 90.8341 371.25C107.868 348.97 131.681 337.603 158.466 331.131C164.502 329.674 170.742 328.418 177.055 327.148C179.235 326.71 181.423 326.27 183.615 325.819C192.144 324.064 200.707 322.15 208.929 319.557C225.375 314.369 240.497 306.45 251.295 291.586Z" stroke="#2F3924" stroke-width="1.1528"/>
</svg>
