<svg viewBox="0 0 736 704" fill="none" xmlns="http://www.w3.org/2000/svg" preserveAspectRatio="none">
<path fill-rule="evenodd" clip-rule="evenodd" d="M736 0H0V704H736V0ZM281.99 658.793C263.657 658.753 246.026 652.019 234.594 638.541L234.521 638.55C234.358 638.434 234.195 638.318 234.032 638.203C233.282 637.67 232.541 637.144 231.793 636.569C210.414 619.491 203.38 589.684 212.757 564.445C214.714 559.172 216.977 554.121 219.224 549.103C223.875 538.72 228.461 528.48 230.145 516.724C232.544 499.793 230.577 482.465 226.401 465.993C219.897 440.212 208.072 416.551 196.253 392.903C192.538 385.468 188.823 378.035 185.274 370.537C161.998 321.294 145.895 254.881 190.231 211.421C224.48 177.853 269.577 193.041 307.045 211.197C309.865 212.568 312.687 213.963 315.517 215.363C333.406 224.208 351.579 233.193 371.268 236.814C399.733 242.041 424.579 230.122 449.424 218.203C451.892 217.019 454.36 215.835 456.831 214.668C502.712 193.047 562.323 185.304 604.576 219.36C646.332 253.034 652.361 315.895 630.464 362.359C618.066 388.724 597.83 410.782 574.51 427.909C550.174 445.813 522.588 456.649 494.732 467.59C492.621 468.419 490.508 469.249 488.395 470.083C454.241 483.534 423.212 499.734 402.142 531.008C393.671 543.587 386.759 557.054 379.851 570.517C371.559 586.675 363.271 602.825 352.292 617.427C335.425 639.877 311.192 658.779 281.99 658.793Z" fill="#F8F8F3"/>
<path d="M329.962 634.503C364.271 588.403 424.178 570.678 480.189 557.961C536.199 545.245 596.122 532.925 637.133 492.679C693.713 437.152 695.356 343.206 662.921 270.963C627.913 192.982 554.93 130.747 470.394 118.041C385.858 105.335 293.228 147.627 255.233 224.33C220.995 293.47 233.013 375.143 228.363 452.136C224.497 515.424 184.639 588.948 200.539 651.235C206.857 676.092 222.344 695.02 249.154 696.982C292.056 700.109 308.298 663.619 329.979 634.543L329.962 634.503Z" stroke="#132440" stroke-width="0.952681" stroke-linecap="round" stroke-linejoin="round"/>
</svg>
