<svg viewBox="0 0 474 412" fill="none" xmlns="http://www.w3.org/2000/svg" preserveAspectRatio="none">
<path fill-rule="evenodd" clip-rule="evenodd" d="M473.789 0H0V411.33H473.789V0ZM238.936 61.3486C283.242 70.959 332.029 78.5254 372.154 59.209L372.156 59.1768C376.299 57.1865 380.406 55.0195 384.506 52.8555C405.48 41.7871 426.295 30.8027 451.035 44.042C469.516 53.9375 474.158 71.3604 470.246 89.7402C464.262 118 441.869 142.31 419.859 166.202C405.982 181.269 392.258 196.169 382.895 211.79C375.104 224.812 368.035 238.424 360.965 252.042C341.34 289.837 321.693 327.675 286.494 353.033C233.363 391.3 152.883 389.392 96.8223 353.9C40.7617 318.41 9.74023 254.044 11.1719 191.507C12.4961 133.57 45.5117 72.2939 104.734 53.9238C146.02 41.1201 191.039 50.9219 233.838 60.2393L238.936 61.3486Z" fill="#F8F8F3"/>
<path fill-rule="evenodd" clip-rule="evenodd" d="M372.154 59.209C332.029 78.5251 283.242 70.9589 238.935 61.3479C237.241 60.9804 235.543 60.6107 233.841 60.2402L233.839 60.2397C191.04 50.9213 146.02 41.1192 104.735 53.9234C47.97 71.5312 15.2823 128.556 11.5002 184.277C11.0611 178.354 10.9062 172.422 11.0416 166.507C12.3654 108.57 45.3809 47.2939 104.605 28.9234C145.889 16.1192 190.91 25.9213 233.709 35.2397C235.411 35.6103 237.11 35.9802 238.805 36.3479C283.112 45.9589 331.899 53.5251 372.024 34.209L372.026 34.1769C376.169 32.1869 380.275 30.0198 384.376 27.8559C405.351 16.7869 426.165 5.80246 450.905 19.0413C469.385 28.9369 474.029 46.3597 470.115 64.7395C470.024 65.1731 469.928 65.6057 469.828 66.0375C467.147 57.1633 461.173 49.4698 451.035 44.0413C426.296 30.8025 405.481 41.7869 384.506 52.8559C380.406 55.0198 376.299 57.1869 372.156 59.1769L372.154 59.209Z" fill="#2F3924"/>
</svg>
