<svg viewBox="0 0 325 272" fill="none" xmlns="http://www.w3.org/2000/svg" preserveAspectRatio="none">
<path fill-rule="evenodd" clip-rule="evenodd" d="M324.16 0H0V271.27H324.16V0ZM142.961 58.7666C168.543 55.0059 196.107 49.2559 213.654 30.8906L213.648 30.873C215.461 28.9795 217.219 26.999 218.973 25.0215C227.949 14.9023 236.859 4.86035 252.723 6.96387C264.574 8.53809 270.551 16.9082 272.148 27.5059C274.625 43.7949 267.549 61.2676 260.594 78.4404C256.207 89.2686 251.869 99.9775 250.006 110.195C248.459 118.712 247.416 127.398 246.373 136.089C243.482 160.203 240.588 184.346 226.885 204.947C206.199 236.038 162.85 251.17 125.797 243.472C88.7461 235.773 59.2676 207.636 47.4824 173.961C36.5625 142.765 41.8926 103.425 69.8242 81.7334C89.2969 66.6113 115.301 62.8105 140.02 59.1973L142.961 58.7666Z" fill="#F8F8F3"/>
<path d="M196.574 30.6407L196.776 30.4286L196.771 30.4109C198.518 28.5749 200.222 26.6553 201.915 24.746C202.842 23.7018 203.765 22.6607 204.692 21.6381C207.388 18.6625 210.127 15.8233 213.102 13.4263C219.036 8.6461 225.9 5.6288 235.216 6.86389C241.03 7.63629 245.374 10.0684 248.464 13.5856C251.56 17.1099 253.424 21.7546 254.214 26.9851L254.214 26.9856C256.211 40.1215 251.93 54.0762 246.492 68.1253C245.267 71.2892 243.984 74.4588 242.702 77.6232C238.312 88.4604 233.948 99.2359 232.073 109.51L232.073 109.51C230.61 117.564 229.599 125.767 228.614 133.966C228.555 134.454 228.497 134.941 228.438 135.429C227.513 143.144 226.589 150.849 225.312 158.438C222.596 174.575 218.291 190.146 209.027 204.074C188.469 234.973 145.337 250.049 108.458 242.387C71.5902 234.727 42.2438 206.721 30.5125 173.201L30.0405 173.366L30.5125 173.2C19.6411 142.141 24.9758 103.055 52.6893 81.5321C72.0539 66.4945 97.9358 62.71 122.696 59.0894C123.663 58.948 124.629 58.8069 125.592 58.6653C151.161 54.9072 178.895 49.1445 196.574 30.6407Z" stroke="#2F3924"/>
</svg>
