<svg viewBox="0 0 739 529" fill="none" xmlns="http://www.w3.org/2000/svg" preserveAspectRatio="none">
<path fill-rule="evenodd" clip-rule="evenodd" d="M739 0H0V529H739V0ZM429.775 117.17C438.083 107.357 446.375 97.5628 455.783 89.2061L455.841 89.2201C478.311 69.1924 506.204 54.9128 536.122 50.5127C594.488 41.917 658.031 80.9177 662.178 143.411C665.206 189.503 631.361 220.996 599.576 250.572C590.828 258.712 582.236 266.707 574.612 274.821C549.411 301.613 540.226 327.6 543.151 364.459C545.8 398.594 543.622 429.658 524.132 458.928C489.232 511.276 418.883 528.624 363.52 498.318C348.954 490.36 337.036 478.747 325.145 467.161C312.225 454.572 299.337 442.014 283.116 434.206C256.624 421.426 234.939 434.516 213.078 447.712C204.942 452.624 196.782 457.55 188.34 461.163C183.999 463.029 179.712 464.414 175.45 465.434C175.904 468.447 174.131 471.979 170.185 472.457C98.5502 480.968 48.8123 398.48 91.1664 339.263C95.1076 333.721 99.9373 328.685 104.774 323.64C113.999 314.02 123.25 304.372 126.416 291.141C128.473 282.542 128.734 273.832 128.995 265.115C129.297 255.044 129.599 244.964 132.671 235.031C141.746 205.37 163.169 179.899 190.417 165.218C217.592 150.581 246.601 149.981 276.285 155.6C282.969 156.866 289.769 158.427 296.635 160.003C326.701 166.904 358.012 174.091 386.159 158.031C403.656 148.021 416.735 132.572 429.775 117.17Z" fill="#F8F8F3"/>
<path fill-rule="evenodd" clip-rule="evenodd" d="M431.22 119.91L431.209 119.923C418.17 135.325 405.09 150.774 387.592 160.783C359.446 176.844 328.133 169.656 298.069 162.755L298.058 162.752C291.196 161.178 284.399 159.619 277.719 158.354C248.035 152.734 219.026 153.334 191.85 167.971C164.604 182.652 143.18 208.122 134.106 237.783C131.033 247.717 130.731 257.799 130.43 267.87C130.168 276.587 129.906 285.296 127.85 293.894C124.684 307.125 115.434 316.773 106.209 326.393C101.371 331.437 96.5412 336.474 92.5998 342.016C84.1353 353.851 79.349 366.615 77.6808 379.397C75.1777 359.946 79.4506 339.318 92.6 320.933C96.5412 315.391 101.371 310.354 106.208 305.31C115.432 295.69 124.683 286.042 127.849 272.811C129.907 264.212 130.168 255.502 130.429 246.785C130.73 236.714 131.032 226.633 134.105 216.7C143.179 187.04 164.603 161.569 191.85 146.888C219.026 132.251 248.035 131.651 277.719 137.27C284.402 138.536 291.203 140.097 298.068 141.673C328.135 148.574 359.445 155.761 387.592 139.701C405.09 129.691 418.169 114.242 431.209 98.8395C439.517 89.0267 447.808 79.2327 457.216 70.876L457.275 70.89C479.745 50.8623 507.638 36.5827 537.556 32.1826C595.922 23.587 659.464 62.5876 663.611 125.081C663.978 130.67 663.803 136.044 663.156 141.226C656.087 81.6293 594.369 44.8987 537.557 53.2657C507.639 57.6661 479.744 71.9454 457.276 91.9727L457.217 91.9591C447.813 100.312 439.525 110.101 431.22 119.91ZM544.453 344.357C543.884 351.533 543.941 359.11 544.584 367.212C544.862 370.789 545.087 374.332 545.244 377.843C545.782 367.555 545.428 356.998 544.585 346.129C544.537 345.536 544.494 344.945 544.453 344.357Z" fill="#FBD26A"/>
</svg>
