<svg viewBox="0 0 547 425" fill="none" xmlns="http://www.w3.org/2000/svg" preserveAspectRatio="none">
<path fill-rule="evenodd" clip-rule="evenodd" d="M547 0H0V425H547V0ZM275.935 68.3482C320.242 77.9592 369.029 85.5255 409.154 66.2093L409.156 66.1772C413.299 64.1872 417.405 62.0201 421.506 59.8562C442.481 48.7872 463.295 37.8028 488.035 51.0416C506.515 60.9372 511.159 78.36 507.245 96.7398C501.261 125 478.869 149.31 456.86 173.204C442.982 188.27 429.257 203.17 419.894 218.79C412.102 231.812 405.034 245.425 397.962 259.044C378.339 296.838 358.693 334.675 323.494 360.033C270.364 398.299 189.883 396.392 133.823 360.901C77.7625 325.41 46.7398 261.044 48.1715 198.507C49.4953 140.571 82.5108 79.2942 141.735 60.9238C183.019 48.1195 228.04 57.9217 270.839 67.24C272.541 67.6107 274.24 67.9805 275.935 68.3482Z" fill="#F8F8F3"/>
<path fill-rule="evenodd" clip-rule="evenodd" d="M409.161 67.2282C369.036 86.5446 320.249 78.9782 275.942 69.3678L270.845 68.2585L270.839 68.2573C228.042 58.9403 183.025 49.1399 141.741 61.943C82.9004 80.1947 49.9298 140.801 48.2082 198.405C48.0037 194.11 47.9493 189.814 48.0475 185.526C49.3713 127.59 82.3868 66.3134 141.611 47.943C182.895 35.1387 227.916 44.9409 270.714 54.2592C272.417 54.6299 274.116 54.9998 275.811 55.3674C320.118 64.9784 368.904 72.5447 409.03 53.2285L409.032 53.1964C413.175 51.2064 417.281 49.0393 421.382 46.8754C442.357 35.8065 463.171 24.822 487.911 38.0608C504.751 47.0783 510.102 62.3461 507.957 78.8929C506.145 67.9884 499.981 58.454 488.042 52.0612C463.302 38.8222 442.488 49.8059 421.514 60.874L421.513 60.8747C417.413 63.0387 413.306 65.2057 409.163 67.196L409.161 67.2282Z" fill="#2F3924"/>
</svg>
