<svg viewBox="0 0 614 448" fill="none" xmlns="http://www.w3.org/2000/svg" preserveAspectRatio="none">
<path fill-rule="evenodd" clip-rule="evenodd" d="M614 0H0V448H614V0ZM327.951 60.3886C373.113 76.3032 423.241 90.3956 467.851 72.9367L467.857 72.9005C472.463 71.1029 477.053 69.0997 481.637 67.0995C505.085 56.8678 528.354 46.7143 552.528 64.5548C570.586 77.8887 573.146 98.2284 566.61 118.694C556.597 150.166 529.909 175.299 503.679 200.002C487.14 215.578 470.783 230.983 458.902 247.697C449.011 261.633 439.801 276.322 430.587 291.017C405.016 331.799 379.417 372.627 339.169 397.513C278.421 435.064 194.327 423.844 140.275 377.17C86.2217 330.497 62.2323 253.796 72.0139 182.825C81.0731 117.074 123.788 51.0878 188.289 36.8524C233.252 26.9309 279.136 43.143 322.756 58.555C324.492 59.1681 326.223 59.7798 327.951 60.3886Z" fill="#F8F8F3"/>
<path d="M486.951 48.139C437.171 69.2871 380.052 55.141 328.478 38.7773C276.905 22.4136 222.339 3.86221 169.89 17.0506C97.5276 35.249 51.588 110.905 43.6584 185.153C35.0958 265.297 64.8819 350.739 127.576 401.391C190.27 452.043 285.657 461.806 352.963 417.515C413.624 377.586 442.631 305.401 482.966 244.973C516.157 195.322 583.469 154.507 600.114 96.2436C606.78 73.0064 603.176 50.22 582.311 35.8383C548.917 12.8344 518.387 34.7795 486.957 48.098L486.951 48.139Z" stroke="#132440" stroke-width="1.00794" stroke-linecap="round" stroke-linejoin="round"/>
</svg>
