<svg viewBox="0 0 713 658" fill="none" xmlns="http://www.w3.org/2000/svg" preserveAspectRatio="none">
<path fill-rule="evenodd" clip-rule="evenodd" d="M706.5 0H0V657.27H706.5V0ZM271.461 620.93C253.932 620.893 237.072 614.465 226.141 601.599L226.07 601.608C225.191 600.983 224.332 600.385 223.461 599.716C203.02 583.416 196.293 554.963 205.26 530.872C207.131 525.839 209.295 521.017 211.443 516.226C215.891 506.314 220.277 496.541 221.887 485.321C224.18 469.16 222.299 452.62 218.307 436.897C212.086 412.286 200.777 389.699 189.475 367.124C185.922 360.03 182.371 352.937 178.979 345.781C156.723 298.778 141.324 235.385 183.721 193.901C216.469 161.859 259.592 176.357 295.42 193.688C298.117 194.997 300.816 196.33 303.523 197.666C320.629 206.108 338.004 214.685 356.83 218.14C384.049 223.129 407.809 211.752 431.566 200.375C433.926 199.245 436.285 198.115 438.648 197.001C482.521 176.363 539.521 168.972 579.926 201.479C619.854 233.623 625.617 293.625 604.68 337.976C592.824 363.143 573.475 384.197 551.176 400.546C527.904 417.636 501.527 427.978 474.889 438.422L468.83 440.801C436.172 453.641 406.502 469.104 386.354 498.955C378.254 510.961 371.646 523.814 365.041 536.664C357.111 552.088 349.186 567.506 338.686 581.444C322.557 602.875 299.385 620.916 271.461 620.93Z" fill="#F8F8F3"/>
<path fill-rule="evenodd" clip-rule="evenodd" d="M586.701 207.514C581.101 198.005 573.87 189.406 564.925 182.205C524.522 149.697 467.521 157.088 423.648 177.726C421.285 178.84 418.925 179.97 416.565 181.1C392.808 192.477 369.05 203.854 341.831 198.864C323.003 195.409 305.627 186.832 288.521 178.389C285.815 177.053 283.116 175.721 280.419 174.413C244.592 157.082 201.468 142.585 168.72 174.626C126.324 216.11 141.722 279.503 163.979 326.507C167.372 333.664 170.925 340.759 174.478 347.856C185.779 370.429 197.086 393.013 203.306 417.622C207.299 433.345 209.18 449.885 206.886 466.047C205.276 477.268 200.89 487.042 196.443 496.953C194.294 501.743 192.13 506.565 190.259 511.597C181.433 535.312 187.813 563.253 207.514 579.669C200.265 564.687 199.322 546.824 205.259 530.872C207.13 525.84 209.294 521.019 211.443 516.229L211.443 516.229C215.89 506.317 220.276 496.543 221.886 485.322C224.18 469.16 222.299 452.62 218.306 436.898C212.086 412.289 200.779 389.705 189.478 367.132L189.478 367.131L189.477 367.129C185.924 360.033 182.372 352.939 178.979 345.782C156.722 298.779 141.324 235.385 183.719 193.902C216.468 161.86 259.592 176.358 295.419 193.689C298.116 194.997 300.814 196.329 303.52 197.664L303.521 197.664C320.627 206.108 338.003 214.684 356.831 218.14C384.05 223.13 407.808 211.752 431.565 200.376L431.57 200.373C433.929 199.244 436.287 198.114 438.648 197.001C482.521 176.363 539.522 168.972 579.925 201.48C582.304 203.395 584.562 205.41 586.701 207.514Z" fill="#FBD26A"/>
<path d="M419.062 486.544C442.701 454.755 483.975 442.532 522.566 433.763C561.158 424.995 602.443 416.499 630.7 388.747C669.683 350.457 670.815 285.674 648.467 235.857C624.347 182.084 574.063 139.169 515.818 130.407C457.573 121.645 393.752 150.808 367.574 203.7C343.985 251.377 352.265 307.697 349.061 360.79C346.397 404.431 318.935 455.131 329.891 498.083C334.243 515.223 344.914 528.275 363.386 529.628C392.945 531.785 404.136 506.622 419.073 486.572L419.062 486.544Z" stroke="#2F3924" stroke-width="0.656942" stroke-linecap="round" stroke-linejoin="round"/>
</svg>
