<svg viewBox="0 0 624 642" fill="none" xmlns="http://www.w3.org/2000/svg" preserveAspectRatio="none">
<path fill-rule="evenodd" clip-rule="evenodd" d="M624 0H0V642H624V0ZM371.775 174.17C380.084 164.356 388.375 154.562 397.783 146.206L397.842 146.22C420.311 126.192 448.205 111.913 478.123 107.513C536.488 98.917 600.031 137.918 604.178 200.411C607.205 246.503 573.361 277.995 541.576 307.57C532.828 315.711 524.236 323.706 516.611 331.821C491.41 358.612 482.227 384.601 485.15 421.459C487.801 455.594 485.621 486.658 466.133 515.929C431.232 568.275 360.883 585.624 305.52 555.318C290.953 547.36 279.037 535.748 267.146 524.162C254.225 511.573 241.336 499.015 225.115 491.206C198.623 478.426 176.939 491.516 155.078 504.712C146.941 509.623 138.781 514.549 130.34 518.162C125.998 520.029 121.711 521.414 117.449 522.434C117.904 525.447 116.131 528.979 112.186 529.457C40.5508 537.968 -9.1875 455.48 33.166 396.263C37.1074 390.721 41.9375 385.684 46.7754 380.64C56 371.02 65.25 361.372 68.416 348.141C70.4727 339.542 70.7344 330.832 70.9961 322.114C71.2969 312.044 71.5977 301.963 74.6699 292.03C83.7461 262.369 105.168 236.899 132.416 222.218C159.592 207.581 188.602 206.981 218.285 212.601C224.969 213.866 231.77 215.427 238.635 217.002C268.699 223.903 300.012 231.091 328.158 215.03C345.656 205.021 358.736 189.572 371.775 174.17Z" fill="#F8F8F3"/>
<path fill-rule="evenodd" clip-rule="evenodd" d="M371.775 160.087C380.083 150.274 388.375 140.48 397.783 132.123L397.841 132.137C420.311 112.109 448.204 97.8298 478.122 93.4297C536.488 84.834 600.031 123.835 604.178 186.328C604.583 192.494 604.328 198.398 603.506 204.072C594.108 146.959 533.967 112.144 478.501 120.313C448.583 124.713 420.69 138.992 398.22 159.02L398.162 159.006C388.754 167.363 380.462 177.157 372.154 186.969C359.114 202.372 346.035 217.821 328.538 227.831C300.39 243.891 269.08 236.704 239.014 229.803C232.148 228.227 225.348 226.666 218.664 225.4C188.98 219.781 159.971 220.381 132.796 235.018C105.548 249.699 84.1247 275.169 75.0499 304.83C71.9775 314.763 71.6756 324.844 71.3739 334.915C71.1128 343.632 70.852 352.342 68.7945 360.941C65.6286 374.172 56.3776 383.82 47.1532 393.44C42.3162 398.484 37.4865 403.521 33.5453 409.063C25.4636 420.362 20.7349 432.509 18.8716 444.709C15.1895 424.091 19.0967 401.851 33.1664 382.18C37.1076 376.638 41.9373 371.601 46.7743 366.557C55.9987 356.937 65.2497 347.289 68.4156 334.058C70.4731 325.459 70.7339 316.749 70.995 308.032C71.2966 297.961 71.5986 287.881 74.671 277.948C83.7458 248.287 105.169 222.816 132.417 208.135C159.592 193.498 188.601 192.898 218.285 198.517C224.969 199.783 231.769 201.344 238.635 202.92C268.701 209.821 300.012 217.008 328.159 200.948C345.656 190.938 358.735 175.489 371.775 160.087ZM485.838 438.551C486.278 429.617 486.051 420.479 485.422 411.11C484.828 418.372 484.878 426.046 485.53 434.259C485.641 435.695 485.744 437.126 485.838 438.551Z" fill="#FBD26A"/>
</svg>
