<svg viewBox="0 0 336 331" fill="none" xmlns="http://www.w3.org/2000/svg" preserveAspectRatio="none">
<path fill-rule="evenodd" clip-rule="evenodd" d="M335.09 0H0V330.28H335.09V0ZM144.406 310.93C135.916 311.886 127.398 309.711 121.391 304.091L121.357 304.099C121.059 303.934 120.764 303.773 120.467 303.605L119.99 303.328C109.188 296.573 104.35 283.174 107.35 271.013C107.977 268.475 108.756 266.021 109.529 263.585C111.131 258.538 112.711 253.562 112.867 248.038C113.08 240.087 111.25 232.185 108.443 224.795C104.064 213.229 97.3379 202.927 90.6113 192.629C88.4961 189.39 86.3809 186.15 84.3398 182.873C70.9512 161.355 59.9746 131.523 78.1914 109.085C92.2637 91.7529 113.945 96.374 132.252 102.771C133.629 103.255 135.01 103.749 136.393 104.245C145.145 107.382 154.033 110.568 163.34 111.194C176.795 112.097 187.662 105.269 198.531 98.4395C199.611 97.7617 200.691 97.084 201.773 96.4131C221.863 83.9834 249.047 77.2373 270.414 90.7275C291.529 104.068 297.656 132.795 289.984 155.429C285.645 168.271 277.447 179.539 267.562 188.692C257.244 198.261 245.049 204.735 232.732 211.272L229.938 212.758C214.84 220.789 201.338 229.925 193.244 245.495C189.988 251.76 187.502 258.352 185.018 264.941C182.037 272.847 179.059 280.749 174.754 288.078C168.137 299.349 157.922 309.37 144.406 310.93Z" fill="#F8F8F3"/>
<path d="M112.732 294.103L112.533 293.917L112.426 293.944C112.401 293.93 112.376 293.916 112.351 293.902C111.976 293.697 111.616 293.499 111.25 293.279C100.647 286.647 95.882 273.476 98.8351 261.51L98.3496 261.39L98.8351 261.51C99.4579 258.984 100.228 256.559 100.999 254.132C101.414 252.825 101.829 251.517 102.222 250.192C103.337 246.431 104.249 242.588 104.366 238.429L104.366 238.429C104.581 230.393 102.731 222.424 99.9089 214.995C95.5088 203.372 88.7382 193.004 82.0057 182.695C79.8963 179.465 77.7906 176.241 75.7627 172.985C69.087 162.256 63.0317 149.482 60.9058 136.62C58.7818 123.769 60.5822 110.858 69.5782 99.7768C76.5048 91.246 85.2932 88.1155 94.6438 87.9067C104.018 87.6973 113.945 90.4263 123.086 93.621C124.458 94.1022 125.835 94.5958 127.217 95.0913C135.963 98.2267 144.925 101.44 154.306 102.071L154.306 102.071C167.931 102.985 178.94 96.0652 189.785 89.2488C190.87 88.5673 191.952 87.8869 193.035 87.2155C213.063 74.8257 240.02 68.189 261.145 81.5277C282.017 94.714 288.127 123.17 280.51 145.645L280.51 145.646C276.203 158.392 268.061 169.593 258.221 178.703L258.221 178.703C247.956 188.224 235.817 194.668 223.491 201.211C222.562 201.704 221.632 202.198 220.701 202.694C205.583 210.737 191.965 219.932 183.799 235.642L184.242 235.872L183.799 235.642C180.53 241.933 178.035 248.551 175.553 255.135C175.304 255.795 175.055 256.455 174.806 257.114C172.065 264.358 169.245 271.523 165.321 278.202L165.321 278.202C158.741 289.41 148.64 299.276 135.348 300.81C126.974 301.753 118.61 299.603 112.732 294.103Z" stroke="#2F3924"/>
</svg>
